<svg xmlns="http://www.w3.org/2000/svg" xmlns:xlink="http://www.w3.org/1999/xlink" viewBox="0 0 341 230.1"><defs><pattern id="a" width="105.1" height="105.08" patternTransform="translate(83.5 -235.5) scale(0.37)" patternUnits="userSpaceOnUse" viewBox="0 0 105.1 105.1"><rect width="105.1" height="105.08" style="fill:none"/><polygon points="62.7 95.9 61 86.5 56.8 84 49.6 91.2 55.6 102.1 70 97.7 67.2 90.8 62.7 95.9" style="fill:#fff"/><polygon points="89.1 66.2 79.1 77.4 91.2 70.1 92.5 66.3 89.1 66.2" style="fill:#fff"/><polygon points="83.1 91 81.3 91 79.2 94.8 88.9 91.8 86.8 88.5 83.1 91" style="fill:#fff"/><polygon points="84.6 84.8 81.4 90.8 83.1 90.8 86.7 88.3 84.6 84.8" style="fill:#fff"/><polygon points="68.6 91 67.6 90.4 67.4 90.6 70.2 97.6 79 94.9 81.1 91 68.6 91" style="fill:#fff"/><polygon points="103.2 66.7 104.2 60.6 100.3 60.6 101.4 66.6 103.2 66.7" style="fill:#fff"/><polygon points="91.3 70.2 91.3 70.2 78.7 77.9 67.7 90.2 68.7 90.8 81.2 90.8 84.6 84.4 86.9 88.2 94.9 82.7 102 70.8 101.3 66.7 92.7 66.3 91.3 70.2" style="fill:#fff"/><polygon points="72.7 46.5 67.6 40.8 66.5 52.5 71 55.8 80.1 49.9 72.7 46.5 72.7 46.5" style="fill:#fff"/><polygon points="102.2 70.6 102.7 69.7 103.2 66.8 101.4 66.8 102.2 70.6" style="fill:#fff"/><polygon points="67.4 90.3 67.2 90.1 67.3 90.4 67.4 90.3" style="fill:#fff"/><polygon points="30.6 36.5 30.1 36.4 30.2 37.2 30.6 36.5" style="fill:#fff"/><polygon points="35.2 43.5 39.7 38.3 30.8 36.6 30.3 37.4 32.5 48.4 37.6 45.7 35.2 43.5" style="fill:#fff"/><polygon points="29 50.2 32.4 48.5 30.1 37.7 23.2 48.6 29 50.2" style="fill:#fff"/><polygon points="31.2 29.7 26.4 30.8 20.2 25.4 19.8 34.2 29.8 36.2 29.3 33.4 31.2 29.7" style="fill:#fff"/><polygon points="95.6 11.7 94.1 23.5 100.2 21.1 100.2 21.1 105.1 22.8 105.1 17.4 99.9 11.8 95.6 11.7" style="fill:#fff"/><polygon points="32.9 55.8 48.1 56.9 47.8 55.4 37.7 45.9 32.6 48.6 32.8 49.7 32.9 55.8" style="fill:#fff"/><polygon points="32.8 66.9 32.7 55.9 25.8 55.4 32.8 66.9" style="fill:#fff"/><polygon points="56.9 83.9 61 86.3 60 80.8 56.9 83.9" style="fill:#fff"/><polygon points="43.7 38.9 43.6 34.2 40.1 38.2 43.7 38.9" style="fill:#fff"/><polygon points="67.2 90.6 66.9 90 61.2 86.6 62.8 95.5 67.2 90.6" style="fill:#fff"/><polygon points="65.8 59.2 70.9 55.9 66.4 52.7 65.8 59.2" style="fill:#fff"/><polygon points="33 67.6 33.2 84.4 41.2 74.8 35.2 71.3 33 67.6" style="fill:#fff"/><polygon points="78.1 78.2 70.3 83 78.2 69.5 63.1 63.9 57.7 66.6 60.1 80.4 62.4 78.1 67.1 89.9 67.6 90.1 78.1 78.2" style="fill:#fff"/><polygon points="37.7 45.6 43.7 42.5 43.7 39.1 39.9 38.4 35.4 43.5 37.7 45.6" style="fill:#fff"/><polygon points="57.5 66.4 56 57.6 48.4 57.1 50.9 69.6 57.5 66.4" style="fill:#fff"/><polygon points="66.8 89.7 62.3 78.5 60.2 80.6 61.2 86.4 66.8 89.7" style="fill:#fff"/><polygon points="26.4 30.6 31.3 29.5 32 28.2 25.4 22 20.3 24.4 20.2 25.2 26.4 30.6" style="fill:#fff"/><polygon points="20.1 24.5 19.7 24.7 20 25 20.1 24.5" style="fill:#fff"/><polygon points="49.2 25.4 43.6 18.7 43.7 26.7 49.2 25.4" style="fill:#fff"/><polygon points="38.4 15.9 25.6 21.9 32.1 28 38.4 15.9" style="fill:#fff"/><polygon points="30.9 36.4 39.8 38.2 43.6 33.9 43.5 26.9 33.4 29.2 34.7 30.5 30.9 36.4" style="fill:#fff"/><polygon points="61.6 35.1 63.2 35.6 67.5 40.4 68.9 25.6 61.6 35.1" style="fill:#fff"/><polygon points="31.6 29.4 33 29.1 32.1 28.3 31.6 29.4" style="fill:#fff"/><polygon points="20.6 17.3 20.3 24.2 25.3 21.8 20.6 17.3" style="fill:#fff"/><polygon points="5.8 77.3 8.2 80.4 11.7 77.1 5.8 77.3" style="fill:#fff"/><polygon points="19.7 34.3 15.2 33.4 19.3 43 19.7 34.3" style="fill:#fff"/><polygon points="23.9 67 17.7 60.6 12.7 60.6 16 73.1 15.9 73.2 12.1 76.9 25.6 76.4 23.9 67" style="fill:#fff"/><polygon points="14.8 89.6 8.2 80.7 3.2 85.5 10.6 94.8 14.8 89.6" style="fill:#fff"/><polygon points="29.9 36.4 19.8 34.4 19.4 43.9 14.9 33.4 5.8 31.5 9.8 44.7 23.1 48.5 30.1 37.4 29.9 36.4" style="fill:#fff"/><polygon points="29.3 72.4 19.9 83.8 24.8 87.4 26.1 86.7 27 89.1 35.3 95.2 43.5 90.6 43.1 76 41.4 74.9 33 84.9 32.8 67.3 25.5 55.2 32.7 55.7 32.6 49.8 32.4 48.7 29 50.4 29 50.4 23.1 48.7 21.3 51.6 24.1 66.9 29.3 72.4 29.3 72.4" style="fill:#fff"/><polygon points="20 25.3 19.5 24.8 12.8 27.9 15.1 33.2 19.7 34.1 20 25.3" style="fill:#fff"/><polygon points="69 10.4 69 10.4 63 9.5 63.2 13.7 84.7 13.7 78.5 29.6 93.9 23.5 95.5 11.7 87.9 11.5 73.2 8.5 69 10.4" style="fill:#fff"/><polygon points="62.8 6.5 63 9.4 69 10.2 72.8 8.5 62.8 6.5" style="fill:#fff"/><polygon points="96.2 7.7 95.7 11.5 99.7 11.6 96.2 7.7" style="fill:#fff"/><polygon points="81.3 49.1 91 42.8 85.4 34.8 81.3 49.1" style="fill:#fff"/><polygon points="62.6 6.2 73.1 8.3 84.3 3.3 55.9 0.4 52.7 7.9 62.8 9.3 62.6 6.2" style="fill:#fff"/><polygon points="80.8 50 81 49.6 80.5 49.9 80.8 50" style="fill:#fff"/><polygon points="57 34 56.9 41 61.3 35.2 57 34" style="fill:#fff"/><polygon points="69.2 25 67.6 40.6 72.8 46.3 80.3 49.8 81 49.3 85.3 34.3 91.1 42.7 99.9 37 93 30.5 93.9 23.8 78.1 29.9 84.5 13.9 63.2 13.9 63.6 22 57.2 14.9 57 33.8 61.4 35.1 69.2 25" style="fill:#fff"/><polygon points="48.3 39.9 48.3 40 43.9 39.2 43.9 42.6 43.9 42.6 37.9 45.8 48 55.3 48.3 56.9 56.1 57.5 57.7 66.4 63.1 63.7 63.1 63.8 78.4 69.4 70.8 82.5 78.5 77.8 89 66 92.6 66.1 96.7 54.7 73.8 58 71 56 65.6 59.6 66.3 52.6 47.9 39.5 48 39.3 66.3 52.4 67.4 40.6 63.1 35.8 61.5 35.3 56.7 41.5 56.8 33.9 46.5 31 43.8 34 43.9 39 48.3 39.9" style="fill:#fff"/><polygon points="40.8 6.5 50.1 13.9 52.1 9.1 51 7.9 40.8 6.5" style="fill:#fff"/><polygon points="63.4 21.5 63 13.9 57.3 13.9 57.3 14.6 63.4 21.5" style="fill:#fff"/><polygon points="51.3 7.9 52.1 8.9 52.5 8.1 51.3 7.9" style="fill:#fff"/><polygon points="63 13.7 62.8 9.5 52.7 8.1 52.3 9 57.1 14.4 57.1 13.7 63 13.7" style="fill:#fff"/><polygon points="34.4 30.5 33.1 29.3 31.5 29.6 29.5 33.5 30 36.2 30.7 36.3 34.4 30.5" style="fill:#fff"/><polygon points="105.1 6.1 105.1 0 100.2 0 93.8 3.2 105.1 6.1" style="fill:#fff"/><polygon points="10.6 95.1 8.1 98 5.3 105.1 12.7 105.1 13.2 98.3 10.6 95.1" style="fill:#fff"/><polygon points="21.1 105.1 22.5 105.1 21.6 104 21.1 105.1" style="fill:#fff"/><polygon points="16.7 92.1 16.7 92.1 15 89.8 10.7 94.9 13.4 98.3 13.4 98.3 12.9 105.1 20.9 105.1 21.6 103.7 21.7 103.8 22.7 105.1 32.9 105.1 22.6 88.8 16.7 92.1" style="fill:#fff"/><polygon points="41.9 105.1 44 105.1 43.1 104 41.9 105.1" style="fill:#fff"/><polygon points="105.1 17.2 105.1 11.9 100.1 11.8 105.1 17.2" style="fill:#fff"/><polygon points="19.5 24.6 20.1 24.3 20.4 16.9 25.5 21.8 38.8 15.5 32.2 28.2 33.2 29.1 43.5 26.7 43.4 18.2 49.6 25.5 43.7 26.9 43.8 33.7 46.4 30.7 56.8 33.8 57.1 14.7 52.2 9.2 50.2 14.1 40.2 6.2 50.8 7.7 44 0 41.9 0 30.8 10.1 30.8 10 22.5 0 21.1 0 12.1 18.1 19.5 24.6" style="fill:#fff"/><polygon points="55.8 0 53.4 0 55.7 0.2 55.8 0" style="fill:#fff"/><polygon points="105.1 105.1 105.1 102.6 100.2 105.1 105.1 105.1" style="fill:#fff"/><polygon points="41.6 0 33.3 0 33.5 0.6 33.4 0.7 32.9 0 22.7 0 30.9 9.8 41.6 0" style="fill:#fff"/><polygon points="52.6 7.9 55.7 0.4 51.5 0 44.3 0 51.1 7.7 52.6 7.9" style="fill:#fff"/><polygon points="55.4 102.2 49.5 91.3 43.7 97.1 43.5 90.8 35.3 95.5 27.1 89.4 33.3 105.1 41.6 105.1 43.1 103.7 44.3 105.1 51.5 105.1 47.4 104.7 55.4 102.2" style="fill:#fff"/><polygon points="73.5 0 73.1 0 73.3 0.4 73.5 0" style="fill:#fff"/><polygon points="85 3.2 73.4 8.4 88 11.3 95.5 11.5 96 7.3 99.9 11.6 105.1 11.7 105.1 6.2 93.2 3.3 99.8 0 73.8 0 73.3 0.9 72.9 0 56 0 55.9 0.3 85 3.2" style="fill:#fff"/><polygon points="91.2 42.9 93.9 46.7 105.1 53.5 105.1 42 100 37.1 91.2 42.9" style="fill:#fff"/><polygon points="93.8 46.8 91.1 43 81.2 49.4 81 50.3 80.3 50 71.2 55.9 73.9 57.8 97 54.5 92.8 66.2 101.2 66.6 100.1 60.4 104.3 60.4 105.1 55.7 105.1 53.7 93.8 46.9 93.8 46.8" style="fill:#fff"/><polygon points="103.4 66.7 105.1 66.7 105.1 60.6 104.4 60.6 103.4 66.7" style="fill:#fff"/><polygon points="105.1 60.4 105.1 56.8 104.5 60.4 105.1 60.4" style="fill:#fff"/><polygon points="105.1 41.7 105.1 33.8 100.2 37 105.1 41.7" style="fill:#fff"/><polygon points="94.1 23.7 93.2 30.4 100 36.9 105.1 33.6 105.1 22.9 100.2 21.3 94.1 23.7" style="fill:#fff"/><polygon points="70.2 97.8 73.1 105.1 73.5 105.1 78.9 95.1 70.2 97.8" style="fill:#fff"/><polygon points="102.8 69.8 102.2 70.9 104 80.1 105.1 81.5 105.1 66.9 103.4 66.8 102.8 69.8" style="fill:#fff"/><polygon points="55.5 102.4 48.4 104.6 53.4 105.1 55.8 105.1 56.3 103.9 55.5 102.4" style="fill:#fff"/><polygon points="55.7 102.3 56.5 103.9 56 105.1 72.9 105.1 70.1 97.9 55.7 102.3" style="fill:#fff"/><polygon points="93.8 99.9 89 92 79.1 95 73.8 105.1 99.8 105.1 105.1 102.4 105.1 95.8 102.4 91.4 93.8 99.9" style="fill:#fff"/><polygon points="105.1 95.5 105.1 88.7 102.5 91.3 105.1 95.5" style="fill:#fff"/><polygon points="102.1 71.1 95 82.8 87 88.3 89.1 91.8 100.6 88.2 102.4 91.1 105.1 88.5 105.1 81.8 103.8 80.2 102.1 71.1" style="fill:#fff"/><polygon points="3 85.5 0 81.8 0 88.5 2.1 86.4 3 85.5" style="fill:#fff"/><polygon points="15.1 89.6 16.8 91.9 22.5 88.7 19.6 84.1 15.1 89.6" style="fill:#fff"/><polygon points="24.1 67.3 25.7 76.4 29.1 72.4 24.1 67.3" style="fill:#fff"/><polygon points="12.1 9.1 12.7 0 5.3 0 2.6 6.7 12.1 9.1" style="fill:#fff"/><polygon points="10.4 94.9 3.1 85.7 2.2 86.5 0 88.7 0 95.5 3.4 100.9 0 102.6 0 105.1 5.1 105.1 8 97.9 10.4 94.9" style="fill:#fff"/><polygon points="102.3 91.3 100.5 88.4 89.2 91.9 93.9 99.7 102.3 91.3" style="fill:#fff"/><polygon points="25.6 76.5 11.9 77 8.3 80.6 15 89.5 19.5 83.9 19 83.1 19.7 83.7 25.6 76.5" style="fill:#fff"/><polygon points="19.8 83.9 19.8 83.9 22.7 88.6 24.6 87.5 19.8 83.9" style="fill:#fff"/><polygon points="49.7 79.9 43.3 76.1 43.7 90.5 47.9 88.2 49.5 91 56.6 83.9 49.7 79.9" style="fill:#fff"/><polygon points="43.7 90.7 43.9 96.6 49.4 91.2 47.9 88.4 43.7 90.7" style="fill:#fff"/><polygon points="43.3 75.9 49.8 79.7 56.7 83.8 60 80.5 57.6 66.6 50.8 69.9 48.2 57.1 32.9 55.9 33 67.2 35.4 71.2 41.3 74.7 43.2 72.5 43.3 75.9" style="fill:#fff"/><polygon points="25 87.5 26.7 88.9 26 87 25 87.5" style="fill:#fff"/><polygon points="0 95.8 0 102.4 3.1 100.9 0 95.8" style="fill:#fff"/><polygon points="24.8 87.6 22.8 88.7 33 104.9 26.9 89.2 24.8 87.6" style="fill:#fff"/><polygon points="2.8 44.6 6 60.4 12.5 60.4 10.2 51.7 2.8 44.6" style="fill:#fff"/><polygon points="5.9 60.6 0 60.6 0 66.7 7.2 67.1 5.9 60.6" style="fill:#fff"/><polygon points="0 17.4 0 22.8 7 25.1 0 17.4" style="fill:#fff"/><polygon points="0 53.7 0 55.7 0.3 53.9 0 53.7" style="fill:#fff"/><polygon points="2.6 44.4 0 42 0 53.5 0.5 53.8 0 56.8 0 60.4 5.8 60.4 2.6 44.4" style="fill:#fff"/><polygon points="0.3 33.6 0 33.8 0 41.7 2.5 44.1 0.3 33.6" style="fill:#fff"/><polygon points="2.7 44.3 10.4 51.6 10.4 51.6 12.7 60.4 17.7 60.4 23.8 66.7 21.1 51.6 23 48.7 9.7 44.8 5.5 31.3 14.9 33.2 12.6 27.8 19.3 24.6 11.8 18.1 11.9 18 20.9 0 12.9 0 12.2 9.3 2.5 6.9 0.5 11.9 0.4 11.9 0 11.9 0 17.2 7.6 25.5 0 22.9 0 33.6 0.5 33.3 2.7 44.3" style="fill:#fff"/><polygon points="2.3 6.8 0 6.2 0 11.7 0.3 11.7 2.3 6.8" style="fill:#fff"/><polygon points="5.1 0 0 0 0 6.1 2.4 6.6 5.1 0" style="fill:#fff"/><polygon points="43.1 75.7 43 73 41.5 74.8 43.1 75.7" style="fill:#fff"/><polygon points="8.1 80.6 5.5 77.1 11.9 76.9 15.8 73.1 12.5 60.6 6.1 60.6 7.4 67.3 0 66.9 0 81.5 3.1 85.4 8.1 80.6" style="fill:#fff"/><polygon points="21.6 103.7 20.9 105.1 21.1 105.1 21.6 104 22.5 105.1 22.7 105.1 21.7 103.8 21.6 103.7" style="fill:#221f1f"/><polygon points="100.2 105.1 105.1 102.6 105.1 102.4 99.8 105.1 100.2 105.1" style="fill:#221f1f"/><polygon points="41.6 105.1 41.9 105.1 43.1 104 44 105.1 44.3 105.1 43.1 103.7 41.6 105.1" style="fill:#221f1f"/><path d="M5.3,105.1H5.1L8,97.9l2.5-3L3.1,85.7l-.9.8L0,88.7v-.3l2.1-2.1.9-.9L0,81.8v-.3l3.1,3.9,5-4.8L5.5,77.1l6.4-.2,3.9-3.8L12.5,60.6H6.1l1.4,6.7L0,66.9v-.2l7.2.3L5.9,60.6H0v-.2H5.8l-3.3-16L0,42v-.3l2.5,2.4L.3,33.6l-.3.2v-.2l.5-.3,2.3,11,7.7,7.3h0l2.3,8.8h5.1l6.1,6.3L21.1,51.6,23,48.7,9.7,44.8,5.5,31.3l9.3,1.9-2.3-5.3,6.8-3.2-7.5-6.5h0l9-18h.2l-9,18.1,7.5,6.5.6-.3.3-7.4,5.1,4.8,13.4-6.3L32.2,28.2l1,.9,10.3-2.3V18.2l6.2,7.4-5.9,1.3v6.8l2.6-3,10.4,3,.3-19.1L52.2,9.2l-2,4.9-10-7.9L50.8,7.7,44,0h.2l6.8,7.7,1.4.2L55.7.4,51.5,0h1.8l2.4.2V0H56V.3L85,3.2,73.4,8.4,88,11.3l7.5.2L96,7.3l3.9,4.3h5.1v.2h-5l5,5.4v.3l-5.2-5.7H95.6L94.1,23.5l6-2.4h0l4.9,1.6v.2l-4.9-1.6-6.1,2.4-.9,6.8,6.8,6.5,5.1-3.3v.2L100.2,37l4.9,4.7V42L100,37.1l-8.8,5.7,2.7,3.9,11.1,6.8v.2L93.8,46.9h0L91.1,43l-9.9,6.4-.2.9-.6-.3-9.1,5.9,2.7,1.9L97,54.5,92.8,66.2l8.4.4-1.2-6.1h4.2l.8-4.7v1.1l-.6,3.6h.6v.2h-.7l-1,6.1h1.7v.2h-1.7l-.5,3-.6,1,1.7,9.3,1.1,1.4v.3l-1.3-1.6-1.7-9.1L95,82.8,87,88.3l2.1,3.4,11.5-3.6,1.8,2.9,2.7-2.7v.3l-2.6,2.6,2.6,4.2v.4l-2.7-4.4-8.5,8.5L89,92,79.1,95l-5.4,10h-.2l5.3-10-8.6,2.7,2.9,7.3h-.2l-2.9-7.2-14.4,4.5.9,1.6-.5,1.2h-.2l.5-1.2-.8-1.5-7.1,2.2,5,.5H51.5l-4.1-.4,8-2.5L49.5,91.3l-5.7,5.7-.2-6.2-8.3,4.6-8.2-6.1,6.1,15.7h-.4L22.6,88.8l-5.9,3.3h0L15,89.8l-4.3,5.2,2.7,3.4h0l-.5,6.8h-.2l.5-6.7-2.6-3.3L8.1,98ZM89.2,91.9l4.7,7.7,8.4-8.4-1.8-2.9ZM12.5,60.4l-2.3-8.8-7.4-7L6,60.4ZM22.5,88.7l-2.9-4.6-4.6,5.5,1.7,2.3Zm6.5-16.3-5-5.1,1.6,9.2ZM19,83.1l.7.5,5.9-7.1L11.9,77,8.3,80.6,15,89.5l4.6-5.5Zm3.7,5.5,1.9-1.1-4.8-3.6h0Zm4.2.6-2.1-1.5-2,1.1L33,104.9Zm-.1-.3L26,87l-1,.6Zm22.6,2.3-1.5-2.7-4.1,2.3.2,5.9Zm.1-.1,7.1-7.1-6.9-4.1-6.4-3.8.4,14.5,4.2-2.4ZM43.2,72.5v3.4l6.5,3.9,6.9,4.1L60,80.5,57.6,66.6l-6.8,3.3L48.2,57.1,32.9,55.9V67.2l2.4,3.9,5.9,3.5ZM43,73l-1.5,1.8,1.6,1Zm-7.8-1.7L33,67.6l.2,16.7,8-9.5ZM32.8,49.7v6l15.3,1.1-.3-1.5L37.7,45.9l-5.2,2.7Zm-.1,6.2-6.8-.5,7,11.5ZM30,36.2h.7l3.7-5.9-1.3-1.2-1.7.4-2,3.8Zm-.8-2.8,2-3.7-4.8,1.1-6.2-5.4-.4,8.8,10,2Zm.8,3,.2.8.4-.7Zm.1,1.3L23.2,48.6,29,50.2l3.4-1.8Zm2.4,10.7,5.1-2.7-2.4-2.3,4.5-5.1-8.9-1.8-.6.9ZM43.6,34.2l-3.6,4,3.6.7Zm-3.7,4.2-4.5,5.1,2.3,2.2,6-3.1V39.1Zm11,31.3,6.6-3.2L56,57.6l-7.6-.6ZM67.6,90.1,78.1,78.2,70.3,83l7.9-13.6L63.1,63.9l-5.4,2.6,2.4,13.8,2.2-2.2,4.7,11.7Zm-.4,0v.1Zm-6-3.7,5.6,3.3L62.3,78.5l-2.1,2.1ZM60,80.8l-3.1,3.1L61,86.3Zm1.2,5.9,1.5,8.9,4.4-4.9-.2-.6Zm8.7,11-2.7-6.9-4.6,5.1L61,86.5,56.8,84l-7.2,7.2,6,10.9ZM81.1,91H68.6l-1-.6-.2.2,2.8,7L79,94.9Zm5.8-2.5L83.1,91H81.3l-2,3.8,9.7-3Zm-3.8,2.4,3.7-2.5-2.1-3.5-3.2,6Zm20.1-24h-1.7l.7,3.8.5-.8Zm-1.8-.3h1.8l1-6h-4Zm-8.7-.2-1.4,3.9h0L78.7,77.9,67.7,90.2l1,.6H81.2l3.4-6.4,2.3,3.8,8-5.5L102,70.8l-.8-4.1Zm-1.5,3.7,1.3-3.8-3.4-.2-10,11.3ZM80.1,49.9l-7.4-3.4h0l-5.1-5.6L66.5,52.5,71,55.8ZM66.4,52.7l-.6,6.5,5.1-3.3Zm2.5-27.1-7.3,9.5,1.6.4,4.3,4.8ZM81,49.6l-.5.3.3.2Zm10-6.7-5.6-8L81.3,49.1Zm4.7-31.3h4L96.2,7.7ZM73.2,8.5,69,10.4h0l-6-.8.2,4.2H84.7L78.5,29.6l15.5-6,1.5-11.9-7.5-.2ZM69,10.2l3.8-1.7-10-2V9.4ZM52.7,7.9l10,1.4-.2-3.1L73.1,8.3l11.1-5L55.9.4Zm-.7,1.1L51,7.9,40.8,6.5l9.3,7.4Zm.4-1-1.2-.2.8,1Zm4.6,6.3v-.7H63l-.2-4.2L52.7,8.1l-.4.9Zm.2-.5v.7l6.1,6.9L63,13.9ZM57,33.8l4.4,1.3L69.2,25,67.6,40.6l5.2,5.8,7.5,3.4.7-.5,4.3-14.9,5.8,8.4L99.9,37,93,30.5l.9-6.8L78.1,29.9l6.3-16H63.2l.4,8.1-6.3-7.1ZM56.9,41l4.4-5.7L57,34ZM43.8,34v5l4.4.9V40l-4.4-.9v3.4h-.1l-6,3.1L48,55.3l.3,1.6,7.8.6,1.6,8.9,5.4-2.6h0l15.3,5.6L70.8,82.5l7.8-4.7L89,66l3.6.2,4.1-11.5L73.8,58,71,56l-5.5,3.6.7-7L47.9,39.5v-.2L66.3,52.4l1.1-11.7-4.4-4.9-1.6-.5-4.8,6.2V33.9L46.5,31Zm-.2-15.3v8l5.5-1.2ZM33.3,29.2l1.3,1.3-3.7,5.9,8.9,1.8,3.8-4.3v-7Zm-1.2-.9-.6,1.1,1.4-.3Zm-6.5-6.4L32.1,28l6.3-12.2Zm-5.4,2.3,5-2.4-4.7-4.5Zm0,.2v.8l6.2,5.4,4.9-1.1.7-1.3L25.4,22Zm-.6.3.4.3v-.5Zm-4.6,8.5,4.6.9.4-8.9-.5-.5-6.7,3.2Zm.1.2L19.3,43l.4-8.7Zm7.9,15.1,7-11.1-.2-1-10-2-.4,9.5L14.9,33.4,5.8,31.5l4,13.1Zm1,18.4,5.3,5.4h-.1L19.9,83.8l4.9,3.6,1.3-.7.9,2.4,8.3,6.2,8.2-4.6L43.1,76l-1.7-1L33,84.9l-.2-17.6L25.5,55.2l7.2.5v-6l-.2-1.1L29,50.4h0l-5.8-1.7-1.8,2.9ZM12.1,76.9l13.4-.5L23.9,67l-6.2-6.4h-5L16,73.1h0ZM8.2,80.4l3.5-3.4-5.8.2Zm2.4,14.3,4.3-5.2L8.2,80.7l-5,4.8Z" style="fill:#221f1f"/><polygon points="0 17.2 0 17.4 7 25.1 0 22.8 0 22.9 7.6 25.5 0 17.2" style="fill:#221f1f"/><polygon points="0 95.5 0 95.8 3.1 100.9 0 102.4 0 102.6 3.4 100.9 0 95.5" style="fill:#221f1f"/><polygon points="0 53.5 0 53.7 0.3 53.9 0 55.7 0 56.8 0.5 53.8 0 53.5" style="fill:#221f1f"/><polygon points="33.5 0.6 33.3 0 32.9 0 33.4 0.7 33.5 0.6" style="fill:#221f1f"/><polygon points="30.8 10.1 41.9 0 41.6 0 30.9 9.8 22.7 0 22.5 0 30.8 10 30.8 10.1" style="fill:#221f1f"/><polygon points="73.8 0 73.5 0 73.3 0.4 73.1 0 72.9 0 73.3 0.9 73.8 0" style="fill:#221f1f"/><polygon points="105.1 6.2 105.1 6.1 93.8 3.2 100.2 0 99.8 0 93.2 3.3 105.1 6.2" style="fill:#221f1f"/><polygon points="0.5 11.9 2.5 6.9 12.2 9.3 12.9 0 12.7 0 12.1 9.1 2.6 6.7 5.3 0 5.1 0 2.4 6.6 0 6.1 0 6.2 2.3 6.8 0.3 11.7 0 11.7 0 11.9 0.4 11.9 0.5 11.9" style="fill:#221f1f"/></pattern></defs><title>Mountain_AW</title><g style="isolation:isolate"><path d="M351.5,211.4l-7.7-6.8a6.5,6.5,0,0,1-1.2-1.4l-13.8-21.8a6.7,6.7,0,0,0-3.4-2.7l-27.1-9.6h.5l-12-50.5a6.3,6.3,0,0,0-1.8-3.1L267.4,99.1l-.7-.8L246.5,71.6a6.8,6.8,0,0,0-4.1-2.5l-25.1-4.9a6.7,6.7,0,0,0-8,5l-7.6,35.2a6.2,6.2,0,0,1-1.2,2.5l-31.9,40.4a6.7,6.7,0,0,1-2.9,2.1l-5.4,2a6.8,6.8,0,0,0-2,1.2l-21.2,18a6.2,6.2,0,0,0-2.1,6.2l5.6,23.1a6.1,6.1,0,0,1-1.2,5.3l-4.5,5.5a6.4,6.4,0,0,1-1.2,1.2c-3.5,2.5-5.4,5.2-5.4,8s-1.4,9.4-1.8,14.8a6.1,6.1,0,0,1-.6,2.2c-3.1,6.5-14.9,14.1-24.5,22.4h5c9.1-7.8,20.2-15,23.1-21.2a5.9,5.9,0,0,0,.6-2.1c.4-5.2,1.7-10.4,1.7-14.3s1.8-5.3,5.2-7.7a6.2,6.2,0,0,0,1.2-1.1l4.3-5.3a5.9,5.9,0,0,0,1.2-5.1l-5.5-22.4a6,6,0,0,1,2-6L161,156.6a6.6,6.6,0,0,1,1.9-1.1l5.2-2a6.5,6.5,0,0,0,2.8-2l14.3-18.2,16.4-20.9.4-.6a6,6,0,0,0,.8-1.9l7.4-34a6.5,6.5,0,0,1,7.7-4.8L242.1,76a6.7,6.7,0,0,1,2.2.9,6.4,6.4,0,0,1,1.7,1.6l19.4,25.7.7.8,16,15h0l1,1a6.1,6.1,0,0,1,1.8,3l11.6,48.8h-.4l26.1,9.3a6.4,6.4,0,0,1,3.3,2.6l13.4,21a6.2,6.2,0,0,0,1.1,1.3l7.4,6.6a6.1,6.1,0,0,1,1.6,2.3l17.5,43.4h4.9l-18.3-45.3A6.4,6.4,0,0,0,351.5,211.4Z" transform="translate(-64.3 -42.3)" style="fill:#7d8c90"/><path d="M266.2,104.9l-.7-.8.7.8Z" transform="translate(-64.3 -42.3)" style="fill:#abc4d2"/><path d="M266.2,104.9l-.7-.8.7.8Z" transform="translate(-64.3 -42.3)" style="opacity:0.25;mix-blend-mode:overlay;fill:url(#a)"/><path d="M192.1,246.9c-.9-1.8-3.3-1.3-4.4,0-3.2,4-6.2,8.1-9,12.3h17.1a35.4,35.4,0,0,0-.7-4.2A34.5,34.5,0,0,0,192.1,246.9Z" transform="translate(-64.3 -42.3)" style="fill:#abc4d2"/><path d="M192.1,246.9c-.9-1.8-3.3-1.3-4.4,0-3.2,4-6.2,8.1-9,12.3h17.1a35.4,35.4,0,0,0-.7-4.2A34.5,34.5,0,0,0,192.1,246.9Z" transform="translate(-64.3 -42.3)" style="opacity:0.25;mix-blend-mode:overlay;fill:url(#a)"/><path d="M151,258.5c-14.4,0,53.1-4.7,37.2-45.8l-.4-1.2v-.4l-.2-.8v-1c0-.1,0-.3,0-.4s0-.4,0-.5v-2l.2-.4.2-.3.2-.4.2-.3.3-.3.3-.3.3-.3.3-.3.3-.3.3-.2.4-.3.4-.2.4-.2.4-.2.4-.2.4-.2.4-.2.5-.2h0c5.1-2.3,12.2-4.3,16.7-10.4h0l.9-1.3c-.1-.8-.1-1.7-.2-2.5a28,28,0,0,0-2.7,3.9,95,95,0,0,1-12.4.2l-1.4,3.5c-18.9,13.3-14.5,26.2-14.5,26.2,5.3,14.8-3.5,13.1-3.5,13.1l-29.4,11.3c-20.2,5.7,3.1-13.2,3.1-13.2,11.8,1.1,18-23.3,18-23.3,11.5-9.9,14-16,14-19.5l-5.8-1.5c-7.3,13.2-13.4,15.4-13.4,15.4V185.6l2.8-2.6-.9-.6c3.2-11.3,6.4-22.6,8.6-34.2l11.9-15.1-14.3,18.2a6.5,6.5,0,0,1-2.8,2l-5.2,2a6.6,6.6,0,0,0-1.9,1.1l-20.5,17.3a6,6,0,0,0-2,6l5.5,22.4a5.9,5.9,0,0,1-1.2,5.1l-4.3,5.3a6.2,6.2,0,0,1-1.2,1.1c-3.4,2.4-5.2,5-5.2,7.7s-1.4,9.1-1.7,14.3a5.9,5.9,0,0,1-.6,2.1c-3,6.2-14,13.4-23.1,21.2h10c4.2-2.8,7.5-5.4,8.2-8l1.4,1.3q3.8,3.5,7.8,6.7h15.4l2.5-.6Zm1.3-90.3-.7-1.3Z" transform="translate(-64.3 -42.3)" style="fill:#abc4d2"/><path d="M307.3,252a42.1,42.1,0,0,0-6-14.6c-3.7-5.4-9-9.7-14.5-13.6a113.1,113.1,0,0,0-15.1-9c-4.2-2.1-8.6-4-12.1-7.1a18.9,18.9,0,0,1-6-12.9c-.5-5.5.6-11,1.4-16.5a45.7,45.7,0,0,0,.6-7.7l-1.5.6c-5.6,1.9-11.4,2.7-17.2,3.7v.2l.3.6.2.5.2.6v.5l.2.6v.5a17.4,17.4,0,0,1,.2,2.4c0,.2,0,.4,0,.6s0,.4,0,.6v4.8l-.2.7v.5l-.2.8v.4l-.4,1.2c-2.1,6.6-5.2,12.9-5.6,19.8a30.3,30.3,0,0,0,3.9,16.9l1.2,2c6,9.1,16.4,15.2,27.2,18a54.7,54.7,0,0,0,10.2,1.6c4,.3,8.1-.2,12.1.6a15.8,15.8,0,0,1,10.3,6.7c.6.9,1.1,1.9,1.6,2.8h10.7A32,32,0,0,0,307.3,252Z" transform="translate(-64.3 -42.3)" style="fill:#abc4d2"/><path d="M347.5,213.5l-7.4-6.6a6.2,6.2,0,0,1-1.1-1.3l-13.4-21a6.4,6.4,0,0,0-3.3-2.6l-26.1-9.3h.4L285,124a6.1,6.1,0,0,0-1.8-3l-1-1v1.2c-.1,1.3-.3,2.6-.5,3.9h0v.3l-.3,2.1a105.2,105.2,0,0,1-3.8,15.4c-.7,2.1-1.5,4.2-2.4,6.3l-.6,1.3-.8,1.6-2,3.6A61.5,61.5,0,0,1,268,161l-.8,1-1.1,1.2-.2.2c.5,5.3.9,10.8,1.1,16.5,2,9,9.2,18.5,16.3,26.7,14.8,8.8,26,10.2,29.2,4.2l-5.9-2.5c-9.8-3.9-16.7-9.5-15.4-12.5s10.9-3.1,20.7.8c7.5,3,16.3,10.7,18.5,16a8.7,8.7,0,0,1,.7,1.5l11.1,23.4c2,2.1,3.9,6.5,4.1,11.8a85.1,85.1,0,0,0,1.3,9.9h18.9l-17.5-43.4A6.1,6.1,0,0,0,347.5,213.5Z" transform="translate(-64.3 -42.3)" style="fill:#abc4d2"/><path d="M124.9,251.1c-.7,2.6-4,5.3-8.2,8H134q-4-3.3-7.8-6.7Z" transform="translate(-64.3 -42.3)" style="fill:#abc4d2"/><path d="M124.9,251.1c-.7,2.6-4,5.3-8.2,8H134q-4-3.3-7.8-6.7Z" transform="translate(-64.3 -42.3)" style="opacity:0.25;mix-blend-mode:overlay;fill:url(#a)"/><path d="M124.9,251.1c-.7,2.6-4,5.3-8.2,8H134q-4-3.3-7.8-6.7Z" transform="translate(-64.3 -42.3)" style="fill:#0077a3;opacity:0.15"/><path d="M210.1,191.1h0Z" transform="translate(-64.3 -42.3)" style="fill:#abc4d2"/><path d="M210.1,191.1h0Z" transform="translate(-64.3 -42.3)" style="opacity:0.25;mix-blend-mode:overlay;fill:url(#a)"/><path d="M210.1,191.1h0Z" transform="translate(-64.3 -42.3)" style="fill:#fff;opacity:0.25"/><path d="M152.3,168.2l-.7-1.3Z" transform="translate(-64.3 -42.3)" style="fill:#abc4d2"/><path d="M152.3,168.2l-.7-1.3Z" transform="translate(-64.3 -42.3)" style="opacity:0.25;mix-blend-mode:overlay;fill:url(#a)"/><path d="M152.3,168.2l-.7-1.3Z" transform="translate(-64.3 -42.3)" style="fill:#fff;opacity:0.25"/><path d="M188,205.6l-.2.3Z" transform="translate(-64.3 -42.3)" style="fill:#fff"/><path d="M187.3,208.3v0Z" transform="translate(-64.3 -42.3)" style="fill:#fff"/><path d="M191,202.7l-.4.2Z" transform="translate(-64.3 -42.3)" style="fill:#fff"/><path d="M190.2,203.2l-.3.2Z" transform="translate(-64.3 -42.3)" style="fill:#fff"/><path d="M189.6,203.8l-.3.3Z" transform="translate(-64.3 -42.3)" style="fill:#fff"/><path d="M191.8,202.3l-.4.2Z" transform="translate(-64.3 -42.3)" style="fill:#fff"/><path d="M187.4,209.9v0Z" transform="translate(-64.3 -42.3)" style="fill:#fff"/><path d="M187.7,206.3v0Z" transform="translate(-64.3 -42.3)" style="fill:#fff"/><path d="M187.7,211.1v0Z" transform="translate(-64.3 -42.3)" style="fill:#fff"/><path d="M187.4,207.1v0Z" transform="translate(-64.3 -42.3)" style="fill:#fff"/><path d="M187.3,208.9c0,.1,0,.3,0,.4S187.3,209,187.3,208.9Z" transform="translate(-64.3 -42.3)" style="fill:#fff"/><path d="M188.4,204.9l-.2.3Z" transform="translate(-64.3 -42.3)" style="fill:#fff"/><path d="M237.9,178.7a17.4,17.4,0,0,1,.2,2.4A17.4,17.4,0,0,0,237.9,178.7Z" transform="translate(-64.3 -42.3)" style="fill:#fff"/><path d="M238.2,181.7c0,.2,0,.4,0,.6S238.2,181.9,238.2,181.7Z" transform="translate(-64.3 -42.3)" style="fill:#fff"/><path d="M238.1,183v0Z" transform="translate(-64.3 -42.3)" style="fill:#fff"/><path d="M238,184.2v0Z" transform="translate(-64.3 -42.3)" style="fill:#fff"/><path d="M192.7,201.8l-.4.2Z" transform="translate(-64.3 -42.3)" style="fill:#fff"/><path d="M237,175.3l.3.6Z" transform="translate(-64.3 -42.3)" style="fill:#fff"/><path d="M237.4,176.5l.2.6Z" transform="translate(-64.3 -42.3)" style="fill:#fff"/><path d="M193.6,201.4l-.5.2Z" transform="translate(-64.3 -42.3)" style="fill:#fff"/><path d="M237,189.2v0Z" transform="translate(-64.3 -42.3)" style="fill:#fff"/><path d="M237.3,187.9v0Z" transform="translate(-64.3 -42.3)" style="fill:#fff"/><path d="M237.6,186.7v0Z" transform="translate(-64.3 -42.3)" style="fill:#fff"/><path d="M237.9,185.4v0Z" transform="translate(-64.3 -42.3)" style="fill:#fff"/><path d="M237.7,177.6l.2.6Z" transform="translate(-64.3 -42.3)" style="fill:#fff"/><path d="M188.7,204.6l.3-.3Z" transform="translate(-64.3 -42.3)" style="fill:#fff"/><path d="M342.3,237.4,331.2,214a8.7,8.7,0,0,0-.7-1.5c-2.2-5.3-11-13-18.5-16-9.8-3.9-19.4-3.7-20.7-.8s5.6,8.6,15.4,12.5l5.9,2.5c-3.2,6-14.4,4.7-29.2-4.2-7.1-8.1-14.3-17.7-16.3-26.7-.2-5.7-.6-11.2-1.1-16.5l-2.6,2.5-.9.8-1.8,1.5c1.9-1.5.3-.2-.2.1l-1.7,1-2.7,1.4h-.3a45.7,45.7,0,0,1-.6,7.7c-.8,5.5-1.9,10.9-1.4,16.5a18.9,18.9,0,0,0,6,12.9c3.4,3.1,7.9,5,12.1,7.1a113.1,113.1,0,0,1,15.1,9c5.5,3.9,10.7,8.1,14.5,13.6a42.1,42.1,0,0,1,6,14.6,32,32,0,0,1,.9,7.1h39.6a85.1,85.1,0,0,1-1.3-9.9C346.2,243.9,344.3,239.5,342.3,237.4Z" transform="translate(-64.3 -42.3)" style="fill:#fff"/><path d="M214.2,184a24.2,24.2,0,0,0-3.2,3.3c.1.8.1,1.7.2,2.5l-.9,1.3h.3l1.8-.2-2.1.2c-4.5,6.1-11.6,8.1-16.7,10.4a37.1,37.1,0,0,0,9.8,2.4c12.4,1.3,23.7-6.9,28.5-17.2a42.6,42.6,0,0,0,3.5-11.2c-2.3.4-4.5.9-6.7,1.5A37,37,0,0,0,214.2,184Z" transform="translate(-64.3 -42.3)" style="fill:#fff"/><path d="M285.5,249.7c-4-.8-8.1-.3-12.1-.6a54.7,54.7,0,0,1-10.2-1.6c-10.8-2.8-21.2-8.9-27.2-18h0l-1,2.2c-.8,1.9-1.6,3.9-2.3,5.8-2.3,6.5-4.1,13.6-3.5,20.5v1h68c-.5-1-1-1.9-1.6-2.8A15.8,15.8,0,0,0,285.5,249.7ZM253,256.6s0,.1,0,.1,0,.4,0,.7S252.9,255.1,253,256.6Z" transform="translate(-64.3 -42.3)" style="fill:#fff"/><path d="M253,256.6c-.1-1.5-.2-.1,0,.8s0-.4,0-.7S253,256.6,253,256.6Z" transform="translate(-64.3 -42.3)" style="fill:#fff"/><path d="M210.6,191h-.3l2.1-.2Z" transform="translate(-64.3 -42.3)" style="fill:#fff"/><path d="M237.9,178.2v0Z" transform="translate(-64.3 -42.3)" style="fill:#abc4d2"/><path d="M237.9,178.2v0Z" transform="translate(-64.3 -42.3)" style="opacity:0.25;mix-blend-mode:overlay;fill:url(#a)"/><path d="M237.9,178.2v0Z" transform="translate(-64.3 -42.3)" style="fill:#7ab3d6;opacity:0.14"/><path d="M191.4,202.5l-.4.2Z" transform="translate(-64.3 -42.3)" style="fill:#abc4d2"/><path d="M191.4,202.5l-.4.2Z" transform="translate(-64.3 -42.3)" style="opacity:0.25;mix-blend-mode:overlay;fill:url(#a)"/><path d="M191.4,202.5l-.4.2Z" transform="translate(-64.3 -42.3)" style="fill:#7ab3d6;opacity:0.14"/><path d="M237.6,177.1v0Z" transform="translate(-64.3 -42.3)" style="fill:#abc4d2"/><path d="M237.6,177.1v0Z" transform="translate(-64.3 -42.3)" style="opacity:0.25;mix-blend-mode:overlay;fill:url(#a)"/><path d="M237.6,177.1v0Z" transform="translate(-64.3 -42.3)" style="fill:#7ab3d6;opacity:0.14"/><path d="M192.2,202.1l-.4.2Z" transform="translate(-64.3 -42.3)" style="fill:#abc4d2"/><path d="M192.2,202.1l-.4.2Z" transform="translate(-64.3 -42.3)" style="opacity:0.25;mix-blend-mode:overlay;fill:url(#a)"/><path d="M192.2,202.1l-.4.2Z" transform="translate(-64.3 -42.3)" style="fill:#7ab3d6;opacity:0.14"/><path d="M237.8,186v0Z" transform="translate(-64.3 -42.3)" style="fill:#abc4d2"/><path d="M237.8,186v0Z" transform="translate(-64.3 -42.3)" style="opacity:0.25;mix-blend-mode:overlay;fill:url(#a)"/><path d="M237.8,186v0Z" transform="translate(-64.3 -42.3)" style="fill:#7ab3d6;opacity:0.14"/><path d="M237.5,187.2l-.2.7Z" transform="translate(-64.3 -42.3)" style="fill:#abc4d2"/><path d="M237.5,187.2l-.2.7Z" transform="translate(-64.3 -42.3)" style="opacity:0.25;mix-blend-mode:overlay;fill:url(#a)"/><path d="M237.5,187.2l-.2.7Z" transform="translate(-64.3 -42.3)" style="fill:#7ab3d6;opacity:0.14"/><path d="M238.2,182.4v0Z" transform="translate(-64.3 -42.3)" style="fill:#abc4d2"/><path d="M238.2,182.4v0Z" transform="translate(-64.3 -42.3)" style="opacity:0.25;mix-blend-mode:overlay;fill:url(#a)"/><path d="M238.2,182.4v0Z" transform="translate(-64.3 -42.3)" style="fill:#7ab3d6;opacity:0.14"/><path d="M190.6,203l-.4.3Z" transform="translate(-64.3 -42.3)" style="fill:#abc4d2"/><path d="M190.6,203l-.4.3Z" transform="translate(-64.3 -42.3)" style="opacity:0.25;mix-blend-mode:overlay;fill:url(#a)"/><path d="M190.6,203l-.4.3Z" transform="translate(-64.3 -42.3)" style="fill:#7ab3d6;opacity:0.14"/><path d="M237.2,188.4l-.2.8Z" transform="translate(-64.3 -42.3)" style="fill:#abc4d2"/><path d="M237.2,188.4l-.2.8Z" transform="translate(-64.3 -42.3)" style="opacity:0.25;mix-blend-mode:overlay;fill:url(#a)"/><path d="M237.2,188.4l-.2.8Z" transform="translate(-64.3 -42.3)" style="fill:#7ab3d6;opacity:0.14"/><path d="M238.2,181.2c0,.2,0,.4,0,.6S238.2,181.4,238.2,181.2Z" transform="translate(-64.3 -42.3)" style="fill:#abc4d2"/><path d="M238.2,181.2c0,.2,0,.4,0,.6S238.2,181.4,238.2,181.2Z" transform="translate(-64.3 -42.3)" style="opacity:0.25;mix-blend-mode:overlay;fill:url(#a)"/><path d="M238.2,181.2c0,.2,0,.4,0,.6S238.2,181.4,238.2,181.2Z" transform="translate(-64.3 -42.3)" style="fill:#7ab3d6;opacity:0.14"/><path d="M237,175.3v-.2h0Z" transform="translate(-64.3 -42.3)" style="fill:#abc4d2"/><path d="M237,175.3v-.2h0Z" transform="translate(-64.3 -42.3)" style="opacity:0.25;mix-blend-mode:overlay;fill:url(#a)"/><path d="M237,175.3v-.2h0Z" transform="translate(-64.3 -42.3)" style="fill:#7ab3d6;opacity:0.14"/><path d="M193.1,201.6l-.4.2Z" transform="translate(-64.3 -42.3)" style="fill:#abc4d2"/><path d="M193.1,201.6l-.4.2Z" transform="translate(-64.3 -42.3)" style="opacity:0.25;mix-blend-mode:overlay;fill:url(#a)"/><path d="M193.1,201.6l-.4.2Z" transform="translate(-64.3 -42.3)" style="fill:#7ab3d6;opacity:0.14"/><path d="M234.8,227.5l1.2,2Z" transform="translate(-64.3 -42.3)" style="fill:#abc4d2"/><path d="M234.8,227.5l1.2,2Z" transform="translate(-64.3 -42.3)" style="opacity:0.25;mix-blend-mode:overlay;fill:url(#a)"/><path d="M234.8,227.5l1.2,2Z" transform="translate(-64.3 -42.3)" style="fill:#7ab3d6;opacity:0.14"/><path d="M236.9,189.6l-.4,1.2Z" transform="translate(-64.3 -42.3)" style="fill:#abc4d2"/><path d="M236.9,189.6l-.4,1.2Z" transform="translate(-64.3 -42.3)" style="opacity:0.25;mix-blend-mode:overlay;fill:url(#a)"/><path d="M236.9,189.6l-.4,1.2Z" transform="translate(-64.3 -42.3)" style="fill:#7ab3d6;opacity:0.14"/><path d="M238.1,183.6v0Z" transform="translate(-64.3 -42.3)" style="fill:#abc4d2"/><path d="M238.1,183.6v0Z" transform="translate(-64.3 -42.3)" style="opacity:0.25;mix-blend-mode:overlay;fill:url(#a)"/><path d="M238.1,183.6v0Z" transform="translate(-64.3 -42.3)" style="fill:#7ab3d6;opacity:0.14"/><path d="M187.5,210.3l.2.8Z" transform="translate(-64.3 -42.3)" style="fill:#abc4d2"/><path d="M187.5,210.3l.2.8Z" transform="translate(-64.3 -42.3)" style="opacity:0.25;mix-blend-mode:overlay;fill:url(#a)"/><path d="M187.5,210.3l.2.8Z" transform="translate(-64.3 -42.3)" style="fill:#7ab3d6;opacity:0.14"/><path d="M193.6,201.4h0Z" transform="translate(-64.3 -42.3)" style="fill:#abc4d2"/><path d="M193.6,201.4h0Z" transform="translate(-64.3 -42.3)" style="opacity:0.25;mix-blend-mode:overlay;fill:url(#a)"/><path d="M193.6,201.4h0Z" transform="translate(-64.3 -42.3)" style="fill:#7ab3d6;opacity:0.14"/><path d="M187.3,209.3v0Z" transform="translate(-64.3 -42.3)" style="fill:#abc4d2"/><path d="M187.3,209.3v0Z" transform="translate(-64.3 -42.3)" style="opacity:0.25;mix-blend-mode:overlay;fill:url(#a)"/><path d="M187.3,209.3v0Z" transform="translate(-64.3 -42.3)" style="fill:#7ab3d6;opacity:0.14"/><path d="M237.9,184.8v0Z" transform="translate(-64.3 -42.3)" style="fill:#abc4d2"/><path d="M237.9,184.8v0Z" transform="translate(-64.3 -42.3)" style="opacity:0.25;mix-blend-mode:overlay;fill:url(#a)"/><path d="M237.9,184.8v0Z" transform="translate(-64.3 -42.3)" style="fill:#7ab3d6;opacity:0.14"/><path d="M189,204.3l.3-.3Z" transform="translate(-64.3 -42.3)" style="fill:#abc4d2"/><path d="M189,204.3l.3-.3Z" transform="translate(-64.3 -42.3)" style="opacity:0.25;mix-blend-mode:overlay;fill:url(#a)"/><path d="M189,204.3l.3-.3Z" transform="translate(-64.3 -42.3)" style="fill:#7ab3d6;opacity:0.14"/><path d="M187.3,208.9c0-.2,0-.4,0-.5S187.3,208.7,187.3,208.9Z" transform="translate(-64.3 -42.3)" style="fill:#abc4d2"/><path d="M187.3,208.9c0-.2,0-.4,0-.5S187.3,208.7,187.3,208.9Z" transform="translate(-64.3 -42.3)" style="opacity:0.25;mix-blend-mode:overlay;fill:url(#a)"/><path d="M187.3,208.9c0-.2,0-.4,0-.5S187.3,208.7,187.3,208.9Z" transform="translate(-64.3 -42.3)" style="fill:#7ab3d6;opacity:0.14"/><path d="M187.8,211.5l.4,1.2Z" transform="translate(-64.3 -42.3)" style="fill:#abc4d2"/><path d="M187.8,211.5l.4,1.2Z" transform="translate(-64.3 -42.3)" style="opacity:0.25;mix-blend-mode:overlay;fill:url(#a)"/><path d="M187.8,211.5l.4,1.2Z" transform="translate(-64.3 -42.3)" style="fill:#7ab3d6;opacity:0.14"/><path d="M188.2,205.2l-.2.4Z" transform="translate(-64.3 -42.3)" style="fill:#abc4d2"/><path d="M188.2,205.2l-.2.4Z" transform="translate(-64.3 -42.3)" style="opacity:0.25;mix-blend-mode:overlay;fill:url(#a)"/><path d="M188.2,205.2l-.2.4Z" transform="translate(-64.3 -42.3)" style="fill:#7ab3d6;opacity:0.14"/><path d="M189.9,203.5l-.3.3Z" transform="translate(-64.3 -42.3)" style="fill:#abc4d2"/><path d="M189.9,203.5l-.3.3Z" transform="translate(-64.3 -42.3)" style="opacity:0.25;mix-blend-mode:overlay;fill:url(#a)"/><path d="M189.9,203.5l-.3.3Z" transform="translate(-64.3 -42.3)" style="fill:#7ab3d6;opacity:0.14"/><path d="M188.7,204.6l-.3.3Z" transform="translate(-64.3 -42.3)" style="fill:#abc4d2"/><path d="M188.7,204.6l-.3.3Z" transform="translate(-64.3 -42.3)" style="opacity:0.25;mix-blend-mode:overlay;fill:url(#a)"/><path d="M188.7,204.6l-.3.3Z" transform="translate(-64.3 -42.3)" style="fill:#7ab3d6;opacity:0.14"/><path d="M237.2,176l.2.5Z" transform="translate(-64.3 -42.3)" style="fill:#abc4d2"/><path d="M237.2,176l.2.5Z" transform="translate(-64.3 -42.3)" style="opacity:0.25;mix-blend-mode:overlay;fill:url(#a)"/><path d="M237.2,176l.2.5Z" transform="translate(-64.3 -42.3)" style="fill:#7ab3d6;opacity:0.14"/><path d="M187.6,206.6v0Z" transform="translate(-64.3 -42.3)" style="fill:#abc4d2"/><path d="M187.6,206.6v0Z" transform="translate(-64.3 -42.3)" style="opacity:0.25;mix-blend-mode:overlay;fill:url(#a)"/><path d="M187.6,206.6v0Z" transform="translate(-64.3 -42.3)" style="fill:#7ab3d6;opacity:0.14"/><path d="M187.8,205.9l-.2.4Z" transform="translate(-64.3 -42.3)" style="fill:#abc4d2"/><path d="M187.8,205.9l-.2.4Z" transform="translate(-64.3 -42.3)" style="opacity:0.25;mix-blend-mode:overlay;fill:url(#a)"/><path d="M187.8,205.9l-.2.4Z" transform="translate(-64.3 -42.3)" style="fill:#7ab3d6;opacity:0.14"/><path d="M187.4,207.5v0Z" transform="translate(-64.3 -42.3)" style="fill:#abc4d2"/><path d="M187.4,207.5v0Z" transform="translate(-64.3 -42.3)" style="opacity:0.25;mix-blend-mode:overlay;fill:url(#a)"/><path d="M187.4,207.5v0Z" transform="translate(-64.3 -42.3)" style="fill:#7ab3d6;opacity:0.14"/><path d="M232.8,237.6c.7-2,1.5-3.9,2.3-5.8l1-2.2h0l-1.2-2a30.3,30.3,0,0,1-3.9-16.9c.5-6.9,3.5-13.2,5.6-19.8l.4-1.2v-.4l.2-.8v-.5l.2-.7v-4.8c0-.2,0-.4,0-.6s0-.4,0-.6a17.4,17.4,0,0,0-.2-2.4v-.5l-.2-.6v-.5l-.2-.6-.2-.5-.3-.6v-.2l-1.5.3a42.6,42.6,0,0,1-3.5,11.2c-4.8,10.3-16.1,18.5-28.5,17.2a37.1,37.1,0,0,1-9.8-2.4h0l-.5.2-.4.2-.4.2-.4.2-.4.2-.4.2-.4.2-.4.3-.3.2-.3.3-.3.3-.3.3-.3.3-.3.3-.2.3-.2.4-.2.3-.2.4v2c0,.2,0,.4,0,.5s0,.3,0,.4v1l.2.8v.4l.4,1.2c15.9,41.1-51.6,45.8-37.2,45.8h.8l-2.5.6h29.3c2.8-4.2,5.7-8.3,9-12.3,1-1.3,3.5-1.8,4.4,0a34.5,34.5,0,0,1,3,8.1,35.4,35.4,0,0,1,.7,4.2h33.7v-1C228.7,251.3,230.5,244.1,232.8,237.6Z" transform="translate(-64.3 -42.3)" style="fill:#fff"/><path d="M232.8,237.6c.7-2,1.5-3.9,2.3-5.8l1-2.2h0l-1.2-2a30.3,30.3,0,0,1-3.9-16.9c.5-6.9,3.5-13.2,5.6-19.8l.4-1.2v-.4l.2-.8v-.5l.2-.7v-4.8c0-.2,0-.4,0-.6s0-.4,0-.6a17.4,17.4,0,0,0-.2-2.4v-.5l-.2-.6v-.5l-.2-.6-.2-.5-.3-.6v-.2l-1.5.3a42.6,42.6,0,0,1-3.5,11.2c-4.8,10.3-16.1,18.5-28.5,17.2a37.1,37.1,0,0,1-9.8-2.4h0l-.5.2-.4.2-.4.2-.4.2-.4.2-.4.2-.4.2-.4.3-.3.2-.3.3-.3.3-.3.3-.3.3-.3.3-.2.3-.2.4-.2.3-.2.4v2c0,.2,0,.4,0,.5s0,.3,0,.4v1l.2.8v.4l.4,1.2c15.9,41.1-51.6,45.8-37.2,45.8h.8l-2.5.6h29.3c2.8-4.2,5.7-8.3,9-12.3,1-1.3,3.5-1.8,4.4,0a34.5,34.5,0,0,1,3,8.1,35.4,35.4,0,0,1,.7,4.2h33.7v-1C228.7,251.3,230.5,244.1,232.8,237.6Z" transform="translate(-64.3 -42.3)" style="fill:#7ab3d6;opacity:0.14"/><path d="M190.4,190.9h-.1l-4.4-.7-3.8-.8c0,3.4-2.5,9.5-14,19.5,0,0-6.1,24.4-18,23.3,0,0-23.3,18.9-3.1,13.2l29.4-11.3s8.7,1.7,3.5-13.1c0,0-4.3-12.9,14.5-26.2l1.4-3.5-3.4-.2Z" transform="translate(-64.3 -42.3)" style="fill:#fff"/><path d="M173.2,186.9l-.5-.2-4.4-2.1-2.6-1.5-2.8,2.6v17.6s6.1-2.1,13.4-15.4H176Z" transform="translate(-64.3 -42.3)" style="fill:#fff"/><path d="M202.1,111.9l-.4.6-16.4,20.9,16.4-20.9Z" transform="translate(-64.3 -42.3)" style="fill:#7d8c90"/><path d="M202.1,111.9l-.4.6-16.4,20.9,16.4-20.9Z" transform="translate(-64.3 -42.3)" style="fill:#fff;opacity:0.45"/><path d="M246.1,78.5a6.4,6.4,0,0,0-1.7-1.6A6.4,6.4,0,0,1,246.1,78.5Z" transform="translate(-64.3 -42.3)" style="fill:#7d8c90"/><path d="M246.1,78.5a6.4,6.4,0,0,0-1.7-1.6A6.4,6.4,0,0,1,246.1,78.5Z" transform="translate(-64.3 -42.3)" style="fill:#fff;opacity:0.45"/><polygon points="217.8 77.7 217.8 77.7 201.9 62.7 201.9 62.7 217.8 77.7" style="fill:#7d8c90"/><polygon points="217.8 77.7 217.8 77.7 201.9 62.7 201.9 62.7 217.8 77.7" style="fill:#fff;opacity:0.45"/><path d="M180.6,185.6c-3.8-6.8-4.1,2-4.1,2l-.2.3,5.8,1.5A4.5,4.5,0,0,0,180.6,185.6Z" transform="translate(-64.3 -42.3)" style="fill:#abc4d2"/><path d="M180.6,185.6c-3.8-6.8-4.1,2-4.1,2l-.2.3,5.8,1.5A4.5,4.5,0,0,0,180.6,185.6Z" transform="translate(-64.3 -42.3)" style="opacity:0.25;mix-blend-mode:overlay;fill:url(#a)"/><path d="M180.6,185.6c-3.8-6.8-4.1,2-4.1,2l-.2.3,5.8,1.5A4.5,4.5,0,0,0,180.6,185.6Z" transform="translate(-64.3 -42.3)" style="fill:#fff;opacity:0.45"/><path d="M164.8,182.5l.9.6,32-29.8c14.6-5.4,2.6,27.2-1.8,38.1a95,95,0,0,0,12.4-.2,28,28,0,0,1,2.7-3.9c-.3-3.6-.4-7.3-.4-10.9,0-43.3,9.1-66.6,32.8-66.6,10.5,0,19.4,22.5,22.5,53.7l.2-.2,1.1-1.2.8-1a61.5,61.5,0,0,0,3.6-5.3l2-3.6.8-1.6.6-1.3c.9-2.1,1.7-4.2,2.4-6.3a105.2,105.2,0,0,0,3.8-15.4l.3-2.1V125h0c.2-1.3.3-2.6.5-3.9V120l-16-15h0l-.7-.8L246.1,78.5a6.4,6.4,0,0,0-1.7-1.6,6.7,6.7,0,0,0-2.2-.9l-24.2-4.8a6.5,6.5,0,0,0-7.7,4.8l-7.4,34a6,6,0,0,1-.8,1.9l-.4.6-16.4,20.9-11.9,15.1C171.2,159.9,168,171.2,164.8,182.5Z" transform="translate(-64.3 -42.3)" style="fill:#abc4d2"/><path d="M249.5,157.1c-2.5-2.3-5.4-3.9-7.1-6.9-2.9-5-2.1-11.7-3.2-17.2a2,2,0,0,0-1.8-1.7,2.7,2.7,0,0,0-4.2-1.1c-5.6,4.9-10.3,10.3-12.4,17.4-1.5,5.1-1.2,10.2,2.5,14.4s7.6,5.8,10.9,9.2a14.4,14.4,0,0,1,1.5,1.8h.1l.4.6.3.5.3.6v.2c5.8-1,11.7-1.8,17.2-3.7l1.5-.6a19,19,0,0,0-1.2-6.5A19.3,19.3,0,0,0,249.5,157.1Z" transform="translate(-64.3 -42.3)" style="fill:#abc4d2"/><path d="M236.4,174.2l.3.6Z" transform="translate(-64.3 -42.3)" style="fill:#fff"/><path d="M236.4,174.2l.3.6Z" transform="translate(-64.3 -42.3)" style="fill:#fff;opacity:0.45"/><path d="M235.8,173.2l.4.6Z" transform="translate(-64.3 -42.3)" style="fill:#fff"/><path d="M235.8,173.2l.4.6Z" transform="translate(-64.3 -42.3)" style="fill:#fff;opacity:0.45"/><path d="M243.4,109.7c-23.7,0-32.8,23.3-32.8,66.6,0,3.6.1,7.3.4,10.9a24.2,24.2,0,0,1,3.2-3.3,37,37,0,0,1,14.5-7.2c2.2-.6,4.5-1.1,6.7-1.5.1-.8.2-1.5.3-2.3a14.4,14.4,0,0,0-1.5-1.8c-3.3-3.4-7.8-5.7-10.9-9.2s-4-9.3-2.5-14.4c2-7.1,6.7-12.5,12.4-17.4a2.7,2.7,0,0,1,4.2,1.1,2,2,0,0,1,1.8,1.7c1,5.5.2,12.2,3.2,17.2,1.7,3,4.6,4.6,7.1,6.9a19.3,19.3,0,0,1,4.9,7.1,19,19,0,0,1,1.2,6.5h.3l2.7-1.4,1.7-1c.5-.3,2.1-1.6.2-.1l1.8-1.5.9-.8,2.6-2.5C262.7,132.2,253.8,109.7,243.4,109.7Z" transform="translate(-64.3 -42.3)" style="fill:#fff"/><path d="M243.4,109.7c-23.7,0-32.8,23.3-32.8,66.6,0,3.6.1,7.3.4,10.9a24.2,24.2,0,0,1,3.2-3.3,37,37,0,0,1,14.5-7.2c2.2-.6,4.5-1.1,6.7-1.5.1-.8.2-1.5.3-2.3a14.4,14.4,0,0,0-1.5-1.8c-3.3-3.4-7.8-5.7-10.9-9.2s-4-9.3-2.5-14.4c2-7.1,6.7-12.5,12.4-17.4a2.7,2.7,0,0,1,4.2,1.1,2,2,0,0,1,1.8,1.7c1,5.5.2,12.2,3.2,17.2,1.7,3,4.6,4.6,7.1,6.9a19.3,19.3,0,0,1,4.9,7.1,19,19,0,0,1,1.2,6.5h.3l2.7-1.4,1.7-1c.5-.3,2.1-1.6.2-.1l1.8-1.5.9-.8,2.6-2.5C262.7,132.2,253.8,109.7,243.4,109.7Z" transform="translate(-64.3 -42.3)" style="fill:#fff;opacity:0.45"/><path d="M235.7,173h0Z" transform="translate(-64.3 -42.3)" style="fill:#abc4d2"/><path d="M235.7,173h0Z" transform="translate(-64.3 -42.3)" style="opacity:0.25;mix-blend-mode:overlay;fill:url(#a)"/><path d="M235.7,173h0Z" transform="translate(-64.3 -42.3)" style="fill:#7ab3d6;opacity:0.14"/><path d="M235.7,173h0Z" transform="translate(-64.3 -42.3)" style="fill:#fff;opacity:0.45"/><path d="M236.1,173.8l.3.5Z" transform="translate(-64.3 -42.3)" style="fill:#abc4d2"/><path d="M236.1,173.8l.3.5Z" transform="translate(-64.3 -42.3)" style="opacity:0.25;mix-blend-mode:overlay;fill:url(#a)"/><path d="M236.1,173.8l.3.5Z" transform="translate(-64.3 -42.3)" style="fill:#7ab3d6;opacity:0.14"/><path d="M236.1,173.8l.3.5Z" transform="translate(-64.3 -42.3)" style="fill:#fff;opacity:0.45"/><path d="M236.8,175.1h0v0Z" transform="translate(-64.3 -42.3)" style="fill:#abc4d2"/><path d="M236.8,175.1h0v0Z" transform="translate(-64.3 -42.3)" style="opacity:0.25;mix-blend-mode:overlay;fill:url(#a)"/><path d="M236.8,175.1h0v0Z" transform="translate(-64.3 -42.3)" style="fill:#7ab3d6;opacity:0.14"/><path d="M236.8,175.1h0v0Z" transform="translate(-64.3 -42.3)" style="fill:#fff;opacity:0.45"/><path d="M236.4,174.2l-.3-.5-.4-.6h-.1c-.1.8-.2,1.5-.3,2.3l1.5-.3v-.2Z" transform="translate(-64.3 -42.3)" style="fill:#fff"/><path d="M236.4,174.2l-.3-.5-.4-.6h-.1c-.1.8-.2,1.5-.3,2.3l1.5-.3v-.2Z" transform="translate(-64.3 -42.3)" style="fill:#7ab3d6;opacity:0.14"/><path d="M236.4,174.2l-.3-.5-.4-.6h-.1c-.1.8-.2,1.5-.3,2.3l1.5-.3v-.2Z" transform="translate(-64.3 -42.3)" style="fill:#fff;opacity:0.45"/><path d="M197.7,153.3l-32,29.8,2.6,1.5,4.4,2.1.5.2,2.8.9h.3l.2-.3s.3-8.7,4.1-2a4.5,4.5,0,0,1,1.6,3.8l3.8.8,4.4.7h.1l2.1.2,3.4.2C200.3,180.4,212.3,147.8,197.7,153.3Z" transform="translate(-64.3 -42.3)" style="fill:#fff"/><path d="M197.7,153.3l-32,29.8,2.6,1.5,4.4,2.1.5.2,2.8.9h.3l.2-.3s.3-8.7,4.1-2a4.5,4.5,0,0,1,1.6,3.8l3.8.8,4.4.7h.1l2.1.2,3.4.2C200.3,180.4,212.3,147.8,197.7,153.3Z" transform="translate(-64.3 -42.3)" style="fill:#fff;opacity:0.45"/><path d="M164.8,182.5l.9.6,32-29.8c14.6-5.4,2.6,27.2-1.8,38.1a95,95,0,0,0,12.4-.2,28,28,0,0,1,2.7-3.9c-.3-3.6-.4-7.3-.4-10.9,0-43.3,9.1-66.6,32.8-66.6,10.5,0,19.4,22.5,22.5,53.7l.2-.2,1.1-1.2.8-1a61.5,61.5,0,0,0,3.6-5.3l2-3.6.8-1.6.6-1.3c.9-2.1,1.7-4.2,2.4-6.3a105.2,105.2,0,0,0,3.8-15.4l.3-2.1V125h0c.2-1.3.3-2.6.5-3.9V120l-16-15h0l-.7-.8L246.1,78.5a6.4,6.4,0,0,0-1.7-1.6,6.7,6.7,0,0,0-2.2-.9l-24.2-4.8a6.5,6.5,0,0,0-7.7,4.8l-7.4,34a6,6,0,0,1-.8,1.9l-.4.6-16.4,20.9-11.9,15.1C171.2,159.9,168,171.2,164.8,182.5Z" transform="translate(-64.3 -42.3)" style="fill:#fff;opacity:0.45"/><path d="M249.5,157.1c-2.5-2.3-5.4-3.9-7.1-6.9-2.9-5-2.1-11.7-3.2-17.2a2,2,0,0,0-1.8-1.7,2.7,2.7,0,0,0-4.2-1.1c-5.6,4.9-10.3,10.3-12.4,17.4-1.5,5.1-1.2,10.2,2.5,14.4s7.6,5.8,10.9,9.2a14.4,14.4,0,0,1,1.5,1.8h.1l.4.6.3.5.3.6v.2c5.8-1,11.7-1.8,17.2-3.7l1.5-.6a19,19,0,0,0-1.2-6.5A19.3,19.3,0,0,0,249.5,157.1Z" transform="translate(-64.3 -42.3)" style="fill:#fff;opacity:0.45"/><path d="M206.2,223.2a3.7,3.7,0,0,0-1.9-3.2l-1.2-.4h-1.9a21.1,21.1,0,0,0-3.1.1,9.2,9.2,0,0,1-3.2-.1.5.5,0,0,1-.3-.5,1.5,1.5,0,0,1,.1-.5c0-.9,0-1.8,0-2.7a8.9,8.9,0,0,1,.9-3.3l6-7.8a13.3,13.3,0,0,0,1-2.5,13.5,13.5,0,0,0,.8-4,32.1,32.1,0,0,1,.8-4.2v-.4a1.7,1.7,0,0,0-1.4-2h-.6c-.8-.1-1.7,1.9-2.2,4.4a14.4,14.4,0,0,0-.2,1.9c-.2,2.2-.9,4-1.8,4.4l-2.4,2.9a10.3,10.3,0,0,0-.3-3.5c-.8-3.6-3.2-6.2-6.1-5.8a6.8,6.8,0,0,0-5.6,6.9,9.7,9.7,0,0,0,.6,3.2c-2.8.9-5.5,4.3-6,4.8a4.5,4.5,0,0,0-1.1,3,3.8,3.8,0,0,0,2.3,3.8l-.2.7a8.4,8.4,0,0,0-.3,2q0,.5,0,.9h.1a.5.5,0,0,1,.6.3,24.2,24.2,0,0,1,.8,2.3c.7,2.7,1.1,5.5,1.7,8.2a.5.5,0,0,1,0,.2,22.3,22.3,0,0,1,0,8.7,7.9,7.9,0,0,0-.3,2.2,16.6,16.6,0,0,0,.5,2.2,4.4,4.4,0,0,1,.1,1,.4.4,0,0,0,.2.4l.4,1.6a11.8,11.8,0,0,0,2.8-1.2l1.3-.9a1.5,1.5,0,0,0,.6-.6,3,3,0,0,0,.2-1.6,23.3,23.3,0,0,1,0-3.2,23,23,0,0,1,1.3-6.3l.5-1.2a5.5,5.5,0,0,0,.9-2.3h.1v-.3h.1l.3-.2a6.2,6.2,0,0,1,1.5-.4,26.1,26.1,0,0,0,6.4-2.5l.4-.3-.6,1.1a2.8,2.8,0,0,0-.4,1.1,1.5,1.5,0,0,0,.4,1.1,5,5,0,0,0,1.7,1.2c.7.3,1.5.7,2.1.1a3.2,3.2,0,0,0,.5-.9l.5-1.1,1-2.1A8.8,8.8,0,0,0,206.2,223.2Zm-12.7-5.4h0Z" transform="translate(-64.3 -42.3)" style="fill:#fcc216"/><path d="M201.2,196.7l.4.2h.3l.8.2h1c.2-1.5.6-2.8.8-3.5v-.4a1.7,1.7,0,0,0-1.4-2h-.6c-.8-.1-1.7,1.9-2.2,4.4h0Z" transform="translate(-64.3 -42.3)" style="fill:#5acaf4"/><path d="M206.2,223.2a3.7,3.7,0,0,0-1.9-3.2l-1.2-.4h-1.9a21.1,21.1,0,0,0-3.1.1h-.8a15.8,15.8,0,0,1,0,2,5.9,5.9,0,0,1-.9,2.9,18.4,18.4,0,0,1-4.1,3.9,11.4,11.4,0,0,1-4.6,2.3,22.8,22.8,0,0,1-5.5.6l.2.8a.5.5,0,0,1,0,.2,22.3,22.3,0,0,1,0,8.7,7.9,7.9,0,0,0-.3,2.2,16.6,16.6,0,0,0,.5,2.2,4.4,4.4,0,0,1,.1,1,.4.4,0,0,0,.2.4l.4,1.6a11.8,11.8,0,0,0,2.8-1.2l1.3-.9a1.5,1.5,0,0,0,.6-.6,3,3,0,0,0,.2-1.6,23.3,23.3,0,0,1,0-3.2,23,23,0,0,1,1.3-6.3l.5-1.2a5.5,5.5,0,0,0,.9-2.3h.1v-.3h.1l.3-.2a6.2,6.2,0,0,1,1.5-.4,26.1,26.1,0,0,0,6.4-2.5l.4-.3-.6,1.1a2.8,2.8,0,0,0-.4,1.1,1.5,1.5,0,0,0,.4,1.1,5,5,0,0,0,1.7,1.2c.7.3,1.5.7,2.1.1a3.2,3.2,0,0,0,.5-.9l.5-1.1,1-2.1A8.8,8.8,0,0,0,206.2,223.2Z" transform="translate(-64.3 -42.3)" style="fill:#f19f1f"/><path d="M183.3,206s-3.9,6-1.1,6.7,2.3-1.2,2.3-1.2l.3-5.2c0-.7-.8-1-1.5-.4Z" transform="translate(-64.3 -42.3)" style="fill:#0077a3"/><path d="M183.3,206s-3.9,6-1.1,6.7,2.3-1.2,2.3-1.2l.3-5.2c0-.7-.8-1-1.5-.4Z" transform="translate(-64.3 -42.3)" style="fill:#4c472f;opacity:0.5"/><path d="M183,246.9h.3l.6-.2h.8l2.3-.5,1.1-.5v.2c.8,1.1,0,4,.8,4.8s1.6.5,1.7.8h0l.6-.2c1.3-.4,2.5-.2,2.8.5s-.1.9-.6,1.3a9.9,9.9,0,0,1-3.4,1.8,12.1,12.1,0,0,1-3.1.6,2.2,2.2,0,0,1-2.5-1.5A40,40,0,0,1,183,247Z" transform="translate(-64.3 -42.3)" style="fill:#5acaf4"/><path d="M187,251l-.2-.8v-.2h0v-.4a12.8,12.8,0,0,1-.1-1.7c0-.3,0-.6,0-.9v-.4h0V246h.3l1.1-.5v.2c.8,1.1,0,4,.8,4.8a2.5,2.5,0,0,0,1.5.7h0l-.6.4-1.1.7-.3.2h-.1l-.5.2h-.1A13.5,13.5,0,0,1,187,251Z" transform="translate(-64.3 -42.3)" style="fill:#0077a3"/><path d="M183,247h.4l.6-.2h.9a15,15,0,0,0,.1,3.4,13.5,13.5,0,0,0,.9,3.3h-1.7A38,38,0,0,1,183,247Z" transform="translate(-64.3 -42.3)" style="fill:#0077a3"/><path d="M188.6,254.4a13.7,13.7,0,0,0,4.7-3.4h0a.9.9,0,0,1,.6.6c.1.4-.1.9-.6,1.3a9.9,9.9,0,0,1-3.4,1.8,12.1,12.1,0,0,1-3.1.6,1.9,1.9,0,0,1-1.5-.3A8,8,0,0,0,188.6,254.4Z" transform="translate(-64.3 -42.3)" style="fill:#4c472f;opacity:0.5"/><path d="M199.1,228.2h.2l.7.2h.5l.6.4,2.1,1.3c.1,1.2-1.6,3.4-1.2,4.4s1.2,1,1.1,1.4h.6c1.3.1,2.3.8,2.2,1.5s-.5.7-1.1.9a9.5,9.5,0,0,1-3.7.2,11.6,11.6,0,0,1-2.9-.7,2.1,2.1,0,0,1-1.5-2.3c.1-1.1,1.2-7.2,2.2-7.7Z" transform="translate(-64.3 -42.3)" style="fill:#5acaf4"/><path d="M197.5,236.8a9.1,9.1,0,0,0,2.3,1h2.3a9.4,9.4,0,0,0,3.9-.8.7.7,0,0,1,.1.4c0,.4-.5.7-1.1.9a9.5,9.5,0,0,1-3.7.2,11.6,11.6,0,0,1-2.9-.7,2,2,0,0,1-1.5-1.8Z" transform="translate(-64.3 -42.3)" style="fill:#4c472f;opacity:0.5"/><path d="M202.8,236.3h0Z" transform="translate(-64.3 -42.3)" style="fill:#0077a3"/><path d="M200.3,229.1a11.8,11.8,0,0,0-1.2,7.1c-.1,0-.1,0,0,0h-2.2c.2-1.3,1.2-7.2,2.2-7.7h.2l.7.2h.5Z" transform="translate(-64.3 -42.3)" style="fill:#0077a3"/><path d="M202.2,235.7l-.8.3h-.5v-.7h0a3.7,3.7,0,0,0,0-.5,12.4,12.4,0,0,1,.1-1.8v-.7h0l.2-.9.3-.8v-.2h0l.2-.4v-.2l1.2.7c.1,1.2-1.6,3.4-1.2,4.4a2,2,0,0,0,.4.7Z" transform="translate(-64.3 -42.3)" style="fill:#0077a3"/><path d="M187.2,228.5a7,7,0,0,0,3.1-1.6l.2-.3.4-.8.3-.8.3-.9a8.6,8.6,0,0,0,.3-1.9,17.2,17.2,0,0,0-.1-2.5c-.1-.9-.2-1.8-.3-2.8a21.3,21.3,0,0,1,.1-5.2,11.7,11.7,0,0,0-1-1.7l-.6-.7a2.3,2.3,0,0,0-1.4-.8,13.1,13.1,0,0,0-6.4-.4c-3.2.6-3.8,2.4-3.1,4.3h.1a3.7,3.7,0,0,0,1.6,1.9c-2.1,1.9-3.7,5.1-2.7,7.7S184,229.1,187.2,228.5Z" transform="translate(-64.3 -42.3)" style="fill:#0077a3"/><path d="M177.7,220.6a8.7,8.7,0,0,1,3-5.8,3.7,3.7,0,0,1-1.6-1.9h-.1a3.5,3.5,0,0,1-.2-1.9h4l-.2.4a3.1,3.1,0,0,0-.2,2,3,3,0,0,0,1,1.6,6.9,6.9,0,0,0,1.7,1l.8.4h.6v.2h.1v.5c0,.1,0,.1,0,.1h0a3.3,3.3,0,0,1,0,.4v.4h0v.6a14.9,14.9,0,0,0-.5,1.8,2.9,2.9,0,0,0,0,1l-.6-.3a10.7,10.7,0,0,0-3.2-.8h-4.7Z" transform="translate(-64.3 -42.3)" style="fill:#5acaf4"/><path d="M187.2,228.5a7,7,0,0,0,3.1-1.6l.2-.3.4-.8.3-.8.3-.9a8.6,8.6,0,0,0,.3-1.9,17.2,17.2,0,0,0-.1-2.5c-.1-.9-.2-1.8-.3-2.8a21.3,21.3,0,0,1,.1-5.2,11.7,11.7,0,0,0-1-1.7l-.6-.7a2.3,2.3,0,0,0-1.4-.8,13.1,13.1,0,0,0-6.4-.4l-1.2.3,2.5.2,1.7.4c.4.1.8.4.8.7a.8.8,0,0,1-.5.8H185v.2h-.1v.5h0a2.6,2.6,0,0,0,0,.3v.2h0v.5h0v.2h.2l.3.2h.2l.8.4a6.4,6.4,0,0,1,1.8,1.2,3.1,3.1,0,0,1,.8,1.9,11.1,11.1,0,0,1-.7,3.5h0c0-.1.1-.2,0,0v.2a2.4,2.4,0,0,0,0,.5h0v.2l.2.5a2.9,2.9,0,0,1,.2,2.3,1.1,1.1,0,0,1-.8.6,1.5,1.5,0,0,1-1.1-.2c-.9-.5-1.5-1.3-2.4-1.9h-.2l-.4-.2h-.4l-1.4-.3h-4.3v.2C179.4,226.3,184,229.1,187.2,228.5Z" transform="translate(-64.3 -42.3)" style="fill:#4c472f;opacity:0.5"/><path d="M179.4,217.2h3.8l.9.2h.7l.5.2-.6.7a4,4,0,0,0-.8,2.7,4.9,4.9,0,0,0,.2,1h-.3a19.6,19.6,0,0,0-5.1-.6H178v-.2a5.3,5.3,0,0,1,.7-4.5Z" transform="translate(-64.3 -42.3)" style="fill:#0077a3"/><path d="M185.3,223h0Z" transform="translate(-64.3 -42.3)" style="fill:#4c472f;opacity:0.25"/><path d="M193.2,206.3s-8.1,2.8-5.9,5.6,3,.5,3,.5l4-4.6c.6-.7-.1-1.5-1.1-1.5Z" transform="translate(-64.3 -42.3)" style="fill:#0077a3"/><path d="M193.2,206.3s-8.1,2.8-5.9,5.6,3,.5,3,.5l4-4.6c.6-.7-.1-1.5-1.1-1.5Z" transform="translate(-64.3 -42.3)" style="fill:#4c472f;opacity:0.5"/><path d="M202.4,233.4h0Z" transform="translate(-64.3 -42.3)" style="fill:#4c472f;opacity:0.5"/><path d="M196.9,206.3c0,1.4-4.4,9.3-5,9.3s-.5-3.5-.5-4.9,2.6-4.4,3.2-4.4S196.9,204.8,196.9,206.3Z" transform="translate(-64.3 -42.3)" style="fill:#fcc216"/><path d="M201.9,224.5a2.5,2.5,0,0,0-.9-1.8l-.8-.4-1-.2a10.7,10.7,0,0,0-2.5.2l-3.2.6a10,10,0,0,1-4.2,0l-1.6-.6a2,2,0,0,1-.8-.7,4.6,4.6,0,0,1-.2-2.3,30.7,30.7,0,0,1,.4-4.4c.5-3,1.3-5.8,1.8-8.8.2-1.4.3-2.8.4-4.3s.3-2.7.6-4.1l.4-1.9h-.8a6.8,6.8,0,0,0-5.6,6.9,10,10,0,0,0,.6,3,1.1,1.1,0,0,0-1.2.2h0l-.5.9a16.2,16.2,0,0,0-2.5,2.1,2.8,2.8,0,0,0-1.2,1.3l-.4.4a4.5,4.5,0,0,0-1.1,3,4.3,4.3,0,0,0,1.3,3.2h0v.2h-.1a5.9,5.9,0,0,0-.9,3.4,5.1,5.1,0,0,0,.2,1.8h0a9.5,9.5,0,0,0,3.5,4.4c.3,1.5.5,2.9.9,4.4h0v.3h0v.3a.5.5,0,0,1,0,.2,22.3,22.3,0,0,1,0,8.7,7.9,7.9,0,0,0-.3,2.2,16.6,16.6,0,0,0,.5,2.2,4.4,4.4,0,0,1,.1,1,.4.4,0,0,0,.2.4H183v.2h0v.2h0v.2h0v.2h0v.2h0v.2h0v.2h0v.2h0v.2h0v.2h0v.2h0v.2h0v.2h0v.2h0v.2h0v.2h0v.3h0v.2h0v.2h0v.2h0v.3h0v.3h0v.4h0l.3.9a2.4,2.4,0,0,0,1,1.3h1.5a12.1,12.1,0,0,0,3.1-.6,9.9,9.9,0,0,0,3.4-1.8l.5-.6-.6.4a4.9,4.9,0,0,1-3.6.7l-.8-.3-.7-.5a7.6,7.6,0,0,1-1.1-1.4,20.1,20.1,0,0,1-1.6-3.2,13.8,13.8,0,0,1-.8-6.4,20,20,0,0,1,2-7,12,12,0,0,1,4.3-5,.5.5,0,0,1,.7.5l1.4-.4a26.1,26.1,0,0,0,6.4-2.5l.4-.3-.6,1.1v.3h-1.9c-.1.8-.2,1.4-.3,1.7a2.4,2.4,0,0,0,0,.5h.1v.2h1.3a9.1,9.1,0,0,1-.1-3.2,12.7,12.7,0,0,1,1.3-3.7c.6-1.1,1.2-2.2,1.7-3.4A7.6,7.6,0,0,0,201.9,224.5Z" transform="translate(-64.3 -42.3)" style="fill:#4c472f;opacity:0.1"/><path d="M193.5,217.8h0Z" transform="translate(-64.3 -42.3)" style="fill:#4c472f;opacity:0.1"/><ellipse cx="182.1" cy="80.1" rx="4.9" ry="1.8" style="fill:#bbbdbf"/><path d="M243.6,136h-.1l-.4-.4h-.2l-.3-.2-.5-.3-1.2-.6-1-.5h-.3a3.8,3.8,0,0,1-1.6-1.3c-1.4-1.5-2-3.6-2.5-5.7a52.6,52.6,0,0,1-1.5-8.1c-.3-2.6-.3-5.1-.4-7.7s-.1-2.5-.3-3.8-.4-2.5-.7-3.8-1.3-5.1-2.1-7.6-1.3-4-1.7-6.1-.4-1.8-.5-2.8-1.2-5-1.9-7.1a9.6,9.6,0,0,0,.2-1.9,3.9,3.9,0,0,1,1.4-2.2h.1l.6-.5.8-.5,1.7-1a37.6,37.6,0,0,0,3.3-2.1,15.6,15.6,0,0,0,4.8-6.1,24.5,24.5,0,0,0,1.7-3.8,36.8,36.8,0,0,0,1.3-5.3v-.3A19.8,19.8,0,0,0,243,49a5.2,5.2,0,0,0,0-.6,4,4,0,0,0-1-2.8l-.2-.4a.9.9,0,0,0-1-.4,3.7,3.7,0,0,0-2.3,3.1c-.3,1.7-.5,3.4-.8,5.1a62.1,62.1,0,0,1-1.2,7,13.4,13.4,0,0,0-.5,1.7h0l-.7,1.5c-3.8,4.5-9.5,3.9-11.3,3.9h0a1.4,1.4,0,0,0-.9-.4,1.3,1.3,0,0,1-1-.6,1,1,0,0,1-.4-.5,2.7,2.7,0,0,1,.1-1.7c.2-.6.5-1.3.7-1.8l.4-1.2.3-1.8V59h0V57.1c-.1-.7-.2-1.5-.3-2.2v-.8a8.9,8.9,0,0,0-6-5.2,8.6,8.6,0,0,0-8.1,2,7.3,7.3,0,0,0-2.1,3.5,7,7,0,0,0,.5,4.4,22.1,22.1,0,0,0,1.1,2.2v.4l.6,1.5.5,1.2v.2a11.5,11.5,0,0,1,.5,1.5l-.3.6c-11.2-5.6-8.5-18.2-8.5-20.8s-.4-3.4-1.9-3.4-2.7,3.1-2.7,6.8,1.3,15.3,2.7,16.6a5.7,5.7,0,0,0,1.5,1.8c2.1,1.7,4.9,6.5,4.7,13.5,0,.2.1.3.2.1a49.8,49.8,0,0,0,0,5.6c.3,3.8,1,6.7,2.1,8.6a81,81,0,0,0-.8,14.8c.1,3.5.3,7,.5,10.5.1,1.8.2,3.5.2,5.3a46.5,46.5,0,0,1,0,5.3,8.6,8.6,0,0,1-1.4,4.2,5,5,0,0,1-1.4,1.3,18.8,18.8,0,0,0-2.1,1.3,3.1,3.1,0,0,0-1.2,2.2,2.5,2.5,0,0,0,1.1,2.1c1.4,1,3.3.6,4.8.2a8.3,8.3,0,0,0,4-2.1,7.5,7.5,0,0,0,1.9-4c.3-1.5.3-3.1.4-4.6s.4-3.5.7-5.2c.6-3.5,1.4-7,1.9-10.5.3-1.8.4-3.6.5-5.5s.1-1.7.2-2.6a3.9,3.9,0,0,1,.6-1.9l.2-.2h.1l.3-.2h.7a2.9,2.9,0,0,1,1.5.3,3.6,3.6,0,0,1,1.3,1.2,8.9,8.9,0,0,1,1,2c.6,1.7,1.1,3.4,1.7,5.1l1.7,5.3a87.2,87.2,0,0,1,3,10.4c.5,2.8.7,6.1,3,8.1a8.1,8.1,0,0,0,4.5,1.7,7.8,7.8,0,0,0,4.6-.8,3.5,3.5,0,0,0,1.9-2.8Z" transform="translate(-64.3 -42.3)" style="fill:#60ba46"/><path d="M220.8,63.7l.4-.4.8-.8.7-.8v-.2l.2-.2v-.2l.3-1.8V59h0V57.1c-.1-.7-.2-1.5-.3-2.2v-.8l-.4-.8a12,12,0,0,0-2.9-.7h-1.7l-1.5.2a6.5,6.5,0,0,0-2.7,1.2h-.3v.4l-.3.4v.2h0l-.2.5a7.8,7.8,0,0,0-.3,1v.9a9.7,9.7,0,0,0,0,1.1v1l.3,1.1.2.5v.4l.5,1,.3.4h.1l.2.2.8.7h.3l.4.3h.4l.5.2H218l.9-.3h.3l.4-.2.9-.6h.1Z" transform="translate(-64.3 -42.3)" style="fill:#c3996b"/><path d="M223.1,54l-.3-.7a12,12,0,0,0-2.9-.7h-1.7l-1.5.2a6.5,6.5,0,0,0-2.7,1.2h-.3v.4l-.3.4v.2h0l-.2.5v.4A64.8,64.8,0,0,1,223.1,54Z" transform="translate(-64.3 -42.3)" style="fill:#404041;opacity:0.8"/><path d="M200.3,51l1-.4c0-2.3.3-4.2.3-5,0-3.8-.4-3.4-1.9-3.4s-2.7,3.1-2.7,6.8c0,.5,0,1.1.1,1.9A4.3,4.3,0,0,0,200.3,51Z" transform="translate(-64.3 -42.3)" style="fill:#c7c2e0"/><path d="M238.1,53l.2.3h.1l.3.3H242l.8-.2a17.3,17.3,0,0,0,.2-5,5.2,5.2,0,0,0,0-.6,4,4,0,0,0-1-2.8l-.2-.4a.9.9,0,0,0-1-.4,3.7,3.7,0,0,0-2.3,3.1c-.3,1.6-.5,3.3-.7,4.9Z" transform="translate(-64.3 -42.3)" style="fill:#c7c2e0"/><path d="M243.6,136h-.1l-.4-.4h-.2l-.3-.2-.5-.3-1.2-.6-1-.5h-.3a3.8,3.8,0,0,1-1.6-1.3c-1.4-1.5-2-3.6-2.5-5.7a52.6,52.6,0,0,1-1.5-8.1c-.3-2.6-.3-5.1-.4-7.7s-.1-2.5-.3-3.8-.4-2.5-.7-3.8-1.3-5.1-2.1-7.6l-1-3.2a16.5,16.5,0,0,1-2.4,1.7,12.7,12.7,0,0,1-6.4,1.8h-5a24.6,24.6,0,0,1-5.7-.8,11.5,11.5,0,0,1-2.4-.9l.5,1a81,81,0,0,0-.8,14.8c.1,3.5.3,7,.5,10.5.1,1.8.2,3.5.2,5.3a46.5,46.5,0,0,1,0,5.3,8.6,8.6,0,0,1-1.4,4.2,5,5,0,0,1-1.4,1.3,18.8,18.8,0,0,0-2.1,1.3,3.1,3.1,0,0,0-1.2,2.2,2.5,2.5,0,0,0,1.1,2.1c1.4,1,3.3.6,4.8.2a8.3,8.3,0,0,0,4-2.1,7.5,7.5,0,0,0,1.9-4c.3-1.5.3-3.1.4-4.6s.4-3.5.7-5.2c.6-3.5,1.4-7,1.9-10.5.3-1.8.4-3.6.5-5.5s.1-1.7.2-2.6a3.9,3.9,0,0,1,.6-1.9l.2-.2h.1l.3-.2h.7a2.9,2.9,0,0,1,1.5.3,3.6,3.6,0,0,1,1.3,1.2,8.9,8.9,0,0,1,1,2c.6,1.7,1.1,3.4,1.7,5.1l1.7,5.3a87.2,87.2,0,0,1,3,10.4c.5,2.8.7,6.1,3,8.1a8.1,8.1,0,0,0,4.5,1.7,7.8,7.8,0,0,0,4.6-.8,3.5,3.5,0,0,0,1.9-2.8Z" transform="translate(-64.3 -42.3)" style="fill:#5f6f7d"/><path d="M214.6,127h-.5l-1.4.3-2.7.8a5.5,5.5,0,0,1-1.9.2c0,.9,0,1.9-.1,2.8a8.6,8.6,0,0,1-1.4,4.2,5,5,0,0,1-1.4,1.3,18.8,18.8,0,0,0-2.1,1.3,3.1,3.1,0,0,0-1.2,2.2,2.5,2.5,0,0,0,1.1,2.1c1.4,1,3.3.6,4.8.2a8.3,8.3,0,0,0,4-2.1,7.5,7.5,0,0,0,1.9-4c.3-1.5.3-3.1.4-4.6s.3-3.2.6-4.8Z" transform="translate(-64.3 -42.3)" style="fill:#c7c2e0"/><path d="M211,139.2a9.6,9.6,0,0,1-3.8.9,8.3,8.3,0,0,1-2.6-.2,2.8,2.8,0,0,1-1.6-1.4l-.2-.2a2.9,2.9,0,0,0-.8,1.9,2.5,2.5,0,0,0,1.1,2.1c1.4,1,3.3.6,4.8.2a8.3,8.3,0,0,0,4-2.1,6.9,6.9,0,0,0,1.6-2.8A11.8,11.8,0,0,1,211,139.2Z" transform="translate(-64.3 -42.3)" style="fill:#414c3f;opacity:0.5"/><path d="M214.6,127h-.5l-1.4.3-1.4.4a18.6,18.6,0,0,1-.2,2.9,10.9,10.9,0,0,1-1.3,3.5,29.4,29.4,0,0,1-1.8,2.9l-.6.7a8.8,8.8,0,0,0,3.1-1.3,23.6,23.6,0,0,0,3.7-3.2c0-.5.1-1.1.1-1.6s.3-3.2.6-4.8Z" transform="translate(-64.3 -42.3)" style="fill:#8f97a3"/><path d="M204.8,137.3h0v.2h.7l.3-.2h.1l.4-.4h.4l.4-.6c.6-.9,1.1-1.9,1.6-2.9a8.1,8.1,0,0,0,.6-1.4l.2-.8v-.5h0c.1-.5.1-1.1.1-1.6a4.8,4.8,0,0,1-1.6.1c0,.9,0,1.9-.1,2.8a8.6,8.6,0,0,1-1.4,4.2,5,5,0,0,1-1.4,1.3l-.5.3h0Z" transform="translate(-64.3 -42.3)" style="fill:#8f97a3"/><path d="M243.6,136h-.1l-.4-.4h-.2l-.3-.2-.5-.3-1.2-.6-1-.5h-.3a3.8,3.8,0,0,1-1.6-1.3c-1.4-1.5-2-3.6-2.5-5.7l-.5-1.9-1.6-.5a5.1,5.1,0,0,0-2.5.1l-1,.3-.5.2H229l-.5.3h0c.4,1.5.8,3,1.1,4.5s.7,6.1,3,8.1a8.1,8.1,0,0,0,4.5,1.7,7.8,7.8,0,0,0,4.6-.8,3.5,3.5,0,0,0,1.9-2.8Z" transform="translate(-64.3 -42.3)" style="fill:#c7c2e0"/><path d="M234.1,126.1a14.3,14.3,0,0,0,1,3.2c.4.9.9,1.8,1.4,2.7a2.9,2.9,0,0,0,2,1.6h1a3.8,3.8,0,0,1-1.6-1.3c-1.4-1.5-2-3.6-2.5-5.7l-.5-1.9-1.2-.4C233.9,125,234,125.6,234.1,126.1Z" transform="translate(-64.3 -42.3)" style="fill:#8f97a3"/><path d="M230,132.3l.9,1a9.8,9.8,0,0,0,2.4,1,12.4,12.4,0,0,0,3.2.5h.2a5.3,5.3,0,0,1-1.8-1.9l-.8-1.4-.7-1.5a18,18,0,0,1-1.4-5.8l-1.2.2-1,.3-.5.2H229l-.5.3h0c.4,1.5.8,3,1.1,4.5S229.9,131.4,230,132.3Z" transform="translate(-64.3 -42.3)" style="fill:#8f97a3"/><path d="M243.5,135.8h0a20.4,20.4,0,0,1-3.7,2.2,7.5,7.5,0,0,1-4.8-.1,14.2,14.2,0,0,1-4.1-2.4,6.3,6.3,0,0,0,1.7,2.4,8.1,8.1,0,0,0,4.5,1.7,7.8,7.8,0,0,0,4.6-.8,3.5,3.5,0,0,0,1.9-2.8h-.1Z" transform="translate(-64.3 -42.3)" style="fill:#414c3f;opacity:0.5"/><path d="M238.3,139.7v-.6a8.6,8.6,0,0,0-.9-2.4,13.4,13.4,0,0,0-1.7-2.1,30.7,30.7,0,0,1-3.5-4.6,18.5,18.5,0,0,1-2.1-5.9c-.8-4-1-8-1.9-12a22.4,22.4,0,0,0-1.9-5.5,10.8,10.8,0,0,0-3.4-4.2c-2.3-1.5-5.2-1.4-7.7-2.5a5.1,5.1,0,0,1-2.6-2.5,11.1,11.1,0,0,1-.4-5.6c.5-4.1,1.8-8.2,1.8-12.4a12.4,12.4,0,0,0-1.4-5.8,26.1,26.1,0,0,0-4.5-5.5c-1.6-1.7-3.3-3.3-4.8-5.1a23,23,0,0,1-4-6c-1.5-3.5-1.6-7.4-1.7-11.2a15.5,15.5,0,0,0-.3,3.3v.2h0v.2h0v.2h0V50h0v.5h0v.3h0V51h0c.3,4.7,1.4,13.6,2.6,14.7a5.7,5.7,0,0,0,1.5,1.8c2.1,1.7,4.9,6.5,4.7,13.5,0,.2.1.3.2.1a49.8,49.8,0,0,0,0,5.6,22,22,0,0,0,1.7,7.8h0v.2h0V95h0v.2a81,81,0,0,0-.8,14.8c.1,3.5.3,7,.5,10.5.1,1.8.2,3.5.2,5.3s0,1.7.1,2.5,0,.2,0,.3h0v.3h0v.3h0v.3h0v.2h0v.2h0v.2h0v.3a8.6,8.6,0,0,1-1.4,4.2,5,5,0,0,1-1.4,1.3l-.3.2h0l-.3.2a9.8,9.8,0,0,0-1.6,1l-.4.3H202a2.5,2.5,0,0,0,1.1,2.1c1.4,1,3.3.6,4.8.2a8.3,8.3,0,0,0,4-2.1l.2-.2h.2v-.2h0v-.2h.2v-.2h.3v-.2h.2v-.3h0l.3-1.1a26.1,26.1,0,0,0,.3-3h0v-.8h0v-.3h0v-4.5h0v-1c.6-3.5,1.4-7,1.9-10.5.3-1.8.4-3.6.5-5.5s.1-1.7.2-2.6a3.9,3.9,0,0,1,.6-1.9l.2-.2h.1l.3-.2h.7a2.9,2.9,0,0,1,1.5.3,3.6,3.6,0,0,1,1.3,1.2,8.9,8.9,0,0,1,1,2c.6,1.7,1.1,3.4,1.7,5.1l1.7,5.3c.6,2,1.3,3.9,1.9,5.9l.3,1.1h0v3.7h0v.2h0v.3h0a19.7,19.7,0,0,0,1.1,4.5v.2h.2v.2h.2v.2h.2v.2h.2l.2.2h0l.2.2h0l.2.2a8.1,8.1,0,0,0,4.5,1.7Z" transform="translate(-64.3 -42.3)" style="fill:#414c3f;opacity:0.1"/><path d="M243,49a5.2,5.2,0,0,0,0-.6,4,4,0,0,0-1-2.8l-.2-.4a.9.9,0,0,0-1-.4,3.4,3.4,0,0,0-2.1,2.6c1.8.9,2.1,3.1,1.9,4.9a22.2,22.2,0,0,1-1.5,6.1,25.7,25.7,0,0,1-1.1,2.4,26.2,26.2,0,0,1-1.5,2.4,13.9,13.9,0,0,1-5.1,5.1,7.5,7.5,0,0,1-3.5.8,10.8,10.8,0,0,1-4.2-1.1.8.8,0,0,1-.3-1.1h-.2a1.3,1.3,0,0,1-1-.6,1,1,0,0,1-.4-.5,2.7,2.7,0,0,1,.1-1.7c.2-.6.5-1.3.7-1.8l.4-1.2.3-1.8V59h0V57.1c-.1-.7-.2-1.5-.3-2.2v-.8a8.9,8.9,0,0,0-6-5.2,9,9,0,0,0-4.5,0,16.5,16.5,0,0,1,5.3,6.4,19.4,19.4,0,0,1,.7,13.2,38.8,38.8,0,0,0,2.2,10.1,34.2,34.2,0,0,0,1.9,4.8,19.6,19.6,0,0,0,2.3,3.4,29.7,29.7,0,0,1,4.5,6.2c-.3-1.1-.7-2.2-.9-3.3s-.4-1.8-.5-2.8-1.2-5-1.9-7.1a9.6,9.6,0,0,0,.2-1.9,3.9,3.9,0,0,1,1.4-2.2h.1l.6-.5.8-.5,1.7-1a37.6,37.6,0,0,0,3.3-2.1,15.6,15.6,0,0,0,4.8-6.1,24.5,24.5,0,0,0,1.7-3.8,36.8,36.8,0,0,0,1.3-5.3v-.3A19.8,19.8,0,0,0,243,49Z" transform="translate(-64.3 -42.3)" style="fill:#fff;opacity:0.25"/><path d="M228.6,67.6h.7l.8-.2h.3l.4-.2.7-.4.5-.4.4-.4a13.7,13.7,0,0,1-6.4,1.5l.6.2Z" transform="translate(-64.3 -42.3)" style="fill:#fff;opacity:0.25"/><rect x="245.7" y="43.6" width="1.6" height="78.14" transform="translate(428.6 123.1) rotate(-180)" style="fill:#58595b"/><polygon points="182.8 21.3 201.7 15.9 220.6 9.5 182.8 1.6 182.8 21.3" style="fill:#fcc216"/><path d="M264.4,53.2h-.2l-.2-.2-.4-.3-.8-.7L261,50.6a6.8,6.8,0,0,0-4.9-.7,13.1,13.1,0,0,0-4.8,2L249.8,53l-.5.3H249l-.9.3h-.9V43.9l37.8,7.9L272.4,56A15.1,15.1,0,0,1,264.4,53.2Z" transform="translate(-64.3 -42.3)" style="fill:#fff;opacity:0.25"/><path d="M156.7,230.6c-.9-6.6-7.6-11.8-15.8-11.8a18.3,18.3,0,0,0-7.8,1.7c-1.5-6.1-7.9-10.7-15.6-10.7s-14.1,4.6-15.6,10.7a18.3,18.3,0,0,0-7.8-1.7c-8.2,0-14.9,5.1-15.8,11.8-7.9.8-14.1,6.4-14.1,13.2s7.1,13.3,15.9,13.3h.6a16.9,16.9,0,0,0,13.3,6,18.1,18.1,0,0,0,8.6-2.1c2,5.4,8.1,9.4,15.2,9.4s12.9-3.8,15.1-9.1a18.3,18.3,0,0,0,7.9,1.7,16.9,16.9,0,0,0,13.3-6h.6c8.8,0,15.9-6,15.9-13.3S164.6,231.4,156.7,230.6Z" transform="translate(-64.3 -42.3)" style="fill:#d9dcdd;opacity:0.9"/><path d="M331.8,226.3c-.9-6.6-7.4-11.8-15.3-11.8a17.2,17.2,0,0,0-7.5,1.7c-1.4-6.1-7.6-10.7-15.1-10.7s-13.7,4.6-15.1,10.7a17.2,17.2,0,0,0-7.5-1.7c-7.9,0-14.4,5.1-15.3,11.8-7.7.8-13.6,6.4-13.6,13.2s6.9,13.3,15.4,13.3h.6a16.1,16.1,0,0,0,12.9,6,17.1,17.1,0,0,0,8.3-2.1c1.9,5.4,7.8,9.4,14.7,9.4s12.5-3.8,14.6-9.1a17.2,17.2,0,0,0,7.6,1.7,16.1,16.1,0,0,0,12.9-6h.6c8.5,0,15.4-6,15.4-13.3S339.5,227.1,331.8,226.3Z" transform="translate(-64.3 -42.3)" style="fill:#d9dcdd;opacity:0.9"/><path d="M391.8,230.6c-.9-6.6-7.4-11.8-15.3-11.8a17.2,17.2,0,0,0-7.5,1.7c-1.4-6.1-7.6-10.7-15.1-10.7s-13.7,4.6-15.1,10.7a17.2,17.2,0,0,0-7.5-1.7c-7.9,0-14.4,5.1-15.3,11.8-7.7.8-13.6,6.4-13.6,13.2s6.9,13.3,15.4,13.3h.6a16.1,16.1,0,0,0,12.9,6,17.1,17.1,0,0,0,8.3-2.1c1.9,5.4,7.8,9.4,14.7,9.4s12.5-3.8,14.6-9.1a17.2,17.2,0,0,0,7.6,1.7,16.1,16.1,0,0,0,12.9-6h.6c8.5,0,15.4-6,15.4-13.3S399.4,231.4,391.8,230.6Z" transform="translate(-64.3 -42.3)" style="fill:#d9dcdd;opacity:0.9"/><path d="M280.3,232.5c-.9-6.6-7.4-11.8-15.3-11.8a17.2,17.2,0,0,0-7.5,1.7c-1.4-6.1-7.7-10.7-15.1-10.7s-13.7,4.6-15.1,10.7a17.2,17.2,0,0,0-7.5-1.7c-7.9,0-14.4,5.1-15.3,11.8-7.7.8-13.6,6.4-13.6,13.2s6.9,13.3,15.4,13.3h.6a16.1,16.1,0,0,0,12.9,6A17.1,17.1,0,0,0,228,263c1.9,5.4,7.8,9.4,14.7,9.4s12.5-3.8,14.6-9.1a17.2,17.2,0,0,0,7.6,1.7,16.1,16.1,0,0,0,12.9-6h.6c8.5,0,15.4-6,15.4-13.3S287.9,233.3,280.3,232.5Z" transform="translate(-64.3 -42.3)" style="fill:#d9dcdd;opacity:0.85"/><path d="M208.5,230.6a13.3,13.3,0,0,0-19.8-10.1,13.3,13.3,0,0,0-26.1,0,13.3,13.3,0,0,0-19.8,10.1,13.3,13.3,0,0,0,1.6,26.6h.5a13.3,13.3,0,0,0,18.3,3.9,13.3,13.3,0,0,0,25.4.4,13.3,13.3,0,0,0,17.8-4.3h.5a13.3,13.3,0,0,0,1.6-26.6Z" transform="translate(-64.3 -42.3)" style="fill:#d9dcdd;opacity:0.9"/></g></svg>