<?xml version="1.0" encoding="UTF-8" standalone="no"?>
<svg
   xmlns:dc="http://purl.org/dc/elements/1.1/"
   xmlns:cc="http://creativecommons.org/ns#"
   xmlns:rdf="http://www.w3.org/1999/02/22-rdf-syntax-ns#"
   xmlns:svg="http://www.w3.org/2000/svg"
   xmlns="http://www.w3.org/2000/svg"
   viewBox="0 0 141.51982 206.80575"
   height="206.80574"
   width="141.51982"
   xml:space="preserve"
   id="svg2"
   version="1.1"><metadata
     id="metadata8"><rdf:RDF><cc:Work
         rdf:about=""><dc:format>image/svg+xml</dc:format><dc:type
           rdf:resource="http://purl.org/dc/dcmitype/StillImage" /><dc:title></dc:title></cc:Work></rdf:RDF></metadata><defs
     id="defs6" /><g
     transform="matrix(1.3333333,0,0,-1.3333333,-74.820095,131.5178)"
     id="g10"><g
       id="g841"><g
         id="g834"
         transform="matrix(0.49702385,0,0,0.49702385,27.886813,-50.363835)"><path
           d="m 130.873,60.1652 c -4.788,0 -8.354,-2.3511 -8.354,-8.0093 0,-4.2633 2.35,-7.2227 8.096,-7.2227 4.87,0 8.178,2.8695 8.178,7.3988 0,5.1328 -2.96,7.8332 -7.92,7.8332 z M 121.3,20.2133 c -1.133,-1.3906 -2.262,-2.868 -2.262,-4.6117 0,-3.4786 4.436,-4.5254 10.53,-4.5254 5.048,0 11.924,0.3535 11.924,5.0468 0,2.7895 -3.308,2.9622 -7.488,3.2243 z m 25.761,39.689 c 1.564,-2.0023 3.22,-4.7878 3.22,-8.791 0,-9.6601 -7.572,-15.3164 -18.535,-15.3164 -2.788,0 -5.312,0.3473 -6.877,0.7817 l -2.873,-4.6118 8.528,-0.521 c 15.058,-0.9594 23.932,-1.3954 23.932,-12.9661 0,-10.0109 -8.788,-15.6652 -23.932,-15.6652 -15.752,0 -21.757,4.00391 -21.757,10.8781 0,3.918 1.741,6.002 4.787,8.8782 -2.873,1.2144 -3.829,3.389 -3.829,5.7398 0,1.916 0.956,3.6562 2.525,5.3109 1.566,1.652 3.306,3.3078 5.395,5.2219 -4.264,2.0883 -7.485,6.6141 -7.485,13.0555 0,10.0074 6.615,16.8804 19.928,16.8804 3.743,0 6.007,-0.3445 8.009,-0.8699 h 16.972 v -7.3957 l -8.008,-0.6094"
           style="fill:#362701;fill-opacity:1;fill-rule:nonzero;stroke:none;stroke-width:0.1"
           id="path14" /><path
           d="m 170.38,75.7168 c -4.962,0 -7.833,2.8746 -7.833,7.8371 0,4.9563 2.871,7.6563 7.833,7.6563 5.048,0 7.92,-2.7 7.92,-7.6563 0,-4.9625 -2.872,-7.8371 -7.92,-7.8371 z M 159.151,23.4156 v 6.8719 l 4.44,0.6074 c 1.219,0.1766 1.392,0.4356 1.392,1.7442 v 25.5867 c 0,0.9555 -0.26,1.5672 -1.133,1.8262 l -4.699,1.655 0.957,7.0469 h 18.017 V 32.6391 c 0,-1.395 0.084,-1.5676 1.393,-1.7442 l 4.439,-0.6074 v -6.8719 h -24.806"
           style="fill:#362701;fill-opacity:1;fill-rule:nonzero;stroke:none;stroke-width:0.1"
           id="path16" /><path
           d="m 218.373,26.7895 c -3.744,-1.8254 -9.226,-3.4793 -14.189,-3.4793 -10.356,0 -14.271,4.1734 -14.271,14.0121 v 22.8004 c 0,0.5211 0,0.8707 -0.699,0.8707 h -6.091 v 7.7453 c 7.661,0.8726 10.705,4.7027 11.662,14.1886 h 8.269 V 70.5648 c 0,-0.607 0,-0.8699 0.697,-0.8699 h 12.27 V 60.9934 H 203.054 V 40.1945 c 0,-5.1355 1.22,-7.1355 5.917,-7.1355 2.44,0 4.961,0.6074 7.05,1.3914 l 2.352,-7.6609"
           style="fill:#362701;fill-opacity:1;fill-rule:nonzero;stroke:none;stroke-width:0.1"
           id="path18" /></g><path
         id="path20"
         style="fill:#f03c2e;fill-opacity:1;fill-rule:nonzero;stroke:none;stroke-width:0.1"
         d="m 153.03609,49.6285 -39.7938,39.791 c -2.2898,2.2918 -6.0066,2.2918 -8.2996,0 L 96.679785,81.1559 107.16149,70.6738 c 2.4367,0.8227 5.2297,0.2711 7.1711,-1.6707 1.9515,-1.9539 2.4992,-4.7707 1.6558,-7.2156 l 10.1024,-10.102 c 2.4441,0.8422 5.264,0.2981 7.2156,-1.657 2.7285,-2.7277 2.7285,-7.1476 0,-9.8762 -2.7289,-2.7293 -7.1488,-2.7293 -9.8789,0 -2.0516,2.0532 -2.559,5.0676 -1.5199,7.5954 l -9.4215,9.4218 -8e-4,-24.7929 c 0.6652,-0.3293 1.293,-0.7688 1.8473,-1.3207 2.7277,-2.7274 2.7277,-7.1465 0,-9.8782 -2.7285,-2.7273 -7.1504,-2.7273 -9.8762,0 -2.7281,2.7317 -2.7281,7.1508 0,9.8782 0.6742,0.673 1.4543,1.1824 2.2867,1.5238 v 25.023 c -0.8324,0.3403 -1.6113,0.8461 -2.2867,1.5239 -2.0664,2.0648 -2.5641,5.0976 -1.5043,7.6351 L 92.619685,77.0961 65.334505,49.8125 c -2.292576,-2.2937 -2.292576,-6.0105 0,-8.3027 L 105.12789,1.71875 c 2.291,-2.291797 6.0066,-2.291797 8.3008,0 l 39.6074,39.60665 c 2.2918,2.293 2.2918,6.0109 0,8.3031" /></g></g></svg>