<?xml version="1.0" encoding="UTF-8" standalone="no"?>
<!DOCTYPE svg PUBLIC "-//W3C//DTD SVG 1.1//EN"
 "http://www.w3.org/Graphics/SVG/1.1/DTD/svg11.dtd">
<!-- Generated by graphviz version 2.50.0 (0)
 -->
<!-- Title: D Pages: 1 -->
<svg width="438pt" height="404pt"
 viewBox="0.00 0.00 438.00 404.00" xmlns="http://www.w3.org/2000/svg" xmlns:xlink="http://www.w3.org/1999/xlink">
<g id="graph0" class="graph" transform="scale(1 1) rotate(0) translate(4 400)">
<title>D</title>
<polygon fill="white" stroke="transparent" points="-4,4 -4,-400 434,-400 434,4 -4,4"/>
<!-- A -->
<g id="node1" class="node">
<title>A</title>
<polygon fill="gold" stroke="black" points="307.5,-396 304.5,-400 283.5,-400 280.5,-396 253.5,-396 253.5,-360 307.5,-360 307.5,-396"/>
<text text-anchor="middle" x="280.5" y="-374.3" font-family="Arial" font-size="14.00">\</text>
</g>
<!-- B -->
<g id="node2" class="node">
<title>B</title>
<polygon fill="gold" stroke="black" points="315.5,-324 312.5,-328 291.5,-328 288.5,-324 245.5,-324 245.5,-288 315.5,-288 315.5,-324"/>
<text text-anchor="middle" x="280.5" y="-302.3" font-family="Arial" font-size="14.00">Usuarios</text>
</g>
<!-- A&#45;&gt;B -->
<g id="edge1" class="edge">
<title>A&#45;&gt;B</title>
<path fill="none" stroke="black" d="M280.5,-359.7C280.5,-351.98 280.5,-342.71 280.5,-334.11"/>
<polygon fill="black" stroke="black" points="284,-334.1 280.5,-324.1 277,-334.1 284,-334.1"/>
</g>
<!-- C -->
<g id="node3" class="node">
<title>C</title>
<polygon fill="gold" stroke="black" points="312,-252 309,-256 288,-256 285,-252 249,-252 249,-216 312,-216 312,-252"/>
<text text-anchor="middle" x="280.5" y="-230.3" font-family="Arial" font-size="14.00">Alumno</text>
</g>
<!-- B&#45;&gt;C -->
<g id="edge2" class="edge">
<title>B&#45;&gt;C</title>
<path fill="none" stroke="black" d="M280.5,-287.7C280.5,-279.98 280.5,-270.71 280.5,-262.11"/>
<polygon fill="black" stroke="black" points="284,-262.1 280.5,-252.1 277,-262.1 284,-262.1"/>
</g>
<!-- D -->
<g id="node4" class="node">
<title>D</title>
<polygon fill="gold" stroke="black" points="308,-180 305,-184 284,-184 281,-180 253,-180 253,-144 308,-144 308,-180"/>
<text text-anchor="middle" x="280.5" y="-158.3" font-family="Arial" font-size="14.00">Grado</text>
</g>
<!-- C&#45;&gt;D -->
<g id="edge3" class="edge">
<title>C&#45;&gt;D</title>
<path fill="none" stroke="black" d="M280.5,-215.7C280.5,-207.98 280.5,-198.71 280.5,-190.11"/>
<polygon fill="black" stroke="black" points="284,-190.1 280.5,-180.1 277,-190.1 284,-190.1"/>
</g>
<!-- E -->
<g id="node5" class="node">
<title>E</title>
<polygon fill="gold" stroke="black" points="185,-108 182,-112 161,-112 158,-108 120,-108 120,-72 185,-72 185,-108"/>
<text text-anchor="middle" x="152.5" y="-86.3" font-family="Arial" font-size="14.00">Primero</text>
</g>
<!-- D&#45;&gt;E -->
<g id="edge4" class="edge">
<title>D&#45;&gt;E</title>
<path fill="none" stroke="black" d="M252.73,-145.81C235.21,-136.23 212.29,-123.7 192.79,-113.03"/>
<polygon fill="black" stroke="black" points="194.27,-109.85 183.82,-108.13 190.91,-116 194.27,-109.85"/>
</g>
<!-- F -->
<g id="node6" class="node">
<title>F</title>
<polygon fill="gold" stroke="black" points="274,-108 271,-112 250,-112 247,-108 203,-108 203,-72 274,-72 274,-108"/>
<text text-anchor="middle" x="238.5" y="-86.3" font-family="Arial" font-size="14.00">Segundo</text>
</g>
<!-- D&#45;&gt;F -->
<g id="edge5" class="edge">
<title>D&#45;&gt;F</title>
<path fill="none" stroke="black" d="M270.12,-143.7C265.24,-135.56 259.31,-125.69 253.92,-116.7"/>
<polygon fill="black" stroke="black" points="256.91,-114.88 248.76,-108.1 250.91,-118.48 256.91,-114.88"/>
</g>
<!-- G -->
<g id="node7" class="node">
<title>G</title>
<polygon fill="gold" stroke="black" points="354.5,-108 351.5,-112 330.5,-112 327.5,-108 292.5,-108 292.5,-72 354.5,-72 354.5,-108"/>
<text text-anchor="middle" x="323.5" y="-86.3" font-family="Arial" font-size="14.00">Tercero</text>
</g>
<!-- D&#45;&gt;G -->
<g id="edge6" class="edge">
<title>D&#45;&gt;G</title>
<path fill="none" stroke="black" d="M291.13,-143.7C296.13,-135.56 302.19,-125.69 307.71,-116.7"/>
<polygon fill="black" stroke="black" points="310.74,-118.46 312.99,-108.1 304.78,-114.79 310.74,-118.46"/>
</g>
<!-- H -->
<g id="node8" class="node">
<title>H</title>
<polygon fill="gold" stroke="black" points="430,-108 427,-112 406,-112 403,-108 373,-108 373,-72 430,-72 430,-108"/>
<text text-anchor="middle" x="401.5" y="-86.3" font-family="Arial" font-size="14.00">Cuarto</text>
</g>
<!-- D&#45;&gt;H -->
<g id="edge7" class="edge">
<title>D&#45;&gt;H</title>
<path fill="none" stroke="black" d="M308.26,-144.94C324.66,-135.45 345.65,-123.31 363.56,-112.95"/>
<polygon fill="black" stroke="black" points="365.7,-115.75 372.61,-107.72 362.2,-109.69 365.7,-115.75"/>
</g>
<!-- I -->
<g id="node9" class="node">
<title>I</title>
<polygon fill="gold" stroke="black" points="95,-36 92,-40 71,-40 68,-36 0,-36 0,0 95,0 95,-36"/>
<text text-anchor="middle" x="47.5" y="-14.3" font-family="Arial" font-size="14.00">Matemáticas</text>
</g>
<!-- E&#45;&gt;I -->
<g id="edge8" class="edge">
<title>E&#45;&gt;I</title>
<path fill="none" stroke="black" d="M126.81,-71.88C113.21,-62.81 96.33,-51.55 81.64,-41.76"/>
<polygon fill="black" stroke="black" points="83.55,-38.82 73.28,-36.19 79.66,-44.65 83.55,-38.82"/>
</g>
<!-- J -->
<g id="node10" class="node">
<title>J</title>
<polygon fill="gold" stroke="black" points="191.5,-36 188.5,-40 167.5,-40 164.5,-36 113.5,-36 113.5,0 191.5,0 191.5,-36"/>
<text text-anchor="middle" x="152.5" y="-14.3" font-family="Arial" font-size="14.00">Economía</text>
</g>
<!-- E&#45;&gt;J -->
<g id="edge9" class="edge">
<title>E&#45;&gt;J</title>
<path fill="none" stroke="black" d="M152.5,-71.7C152.5,-63.98 152.5,-54.71 152.5,-46.11"/>
<polygon fill="black" stroke="black" points="156,-46.1 152.5,-36.1 149,-46.1 156,-46.1"/>
</g>
<!-- K -->
<g id="node11" class="node">
<title>K</title>
<polygon fill="gold" stroke="black" points="311,-36 308,-40 287,-40 284,-36 210,-36 210,0 311,0 311,-36"/>
<text text-anchor="middle" x="260.5" y="-14.3" font-family="Arial" font-size="14.00">Programación</text>
</g>
<!-- E&#45;&gt;K -->
<g id="edge10" class="edge">
<title>E&#45;&gt;K</title>
<path fill="none" stroke="black" d="M178.92,-71.88C192.91,-62.81 210.28,-51.55 225.39,-41.76"/>
<polygon fill="black" stroke="black" points="227.49,-44.57 233.98,-36.19 223.68,-38.69 227.49,-44.57"/>
</g>
</g>
</svg>
