<?xml version="1.0" standalone="no"?>
<!DOCTYPE svg PUBLIC "-//W3C//DTD SVG 1.0//EN" "http://www.w3.org/TR/2001/REC-SVG-20010904/DTD/svg10.dtd">
<svg xmlns="http://www.w3.org/2000/svg" xmlns:xlink="http://www.w3.org/1999/xlink" id="body_1" width="1600" height="1219">

<defs>
    <clipPath  id="1">

    <path id=""  clip-rule="evenodd" transform="matrix(1 0 0 1 0 0)"  d="M0 914L0 0L0 0L1200 0L1200 0L1200 914L1200 914L0 914z" />    </clipPath>
    <clipPath  id="2">

    <path id=""  clip-rule="evenodd" transform="matrix(1 0 0 1 0 0)"  d="M0 914L1200 914L1200 914L1200 0L1200 0L0 0z" />    </clipPath>
    <clipPath  id="3">

    <path id=""  clip-rule="evenodd" transform="matrix(1 0 0 1 0 0)"  d="M0 914L1200 914L1200 914L1200 0L1200 0L0 0z" />    </clipPath>
    <clipPath  id="4">

    <path id=""  clip-rule="evenodd" transform="matrix(1 0 0 1 0 0)"  d="M0 0.4249878L0 914L0 914L1200 914L1200 914L1200 0.4249878z" />    </clipPath>
</defs>

<g transform="matrix(1.3333 0 0 1.3333 0 0)">
	<g clip-path="url(#1)" >
		<g clip-path="url(#2)" >
			<g clip-path="url(#3)" >
				<g clip-path="url(#4)" >
    <path id=""  transform="matrix(1 0 0 -1 0 914)"  d="M1200 0L0 0L0 0L0 913.575L0 913.575L1200 913.575L1200 913.575L1200 0z" stroke="none" fill="#FFFFFF" fill-rule="nonzero" />
    <path id=""  transform="matrix(1 0 0 -1 0 914)"  d="M715.841 488.59402L485.83 488.59402C 479.983 488.59402 475.242 493.33502 475.242 499.182L475.242 499.182L475.242 504.246C 475.242 506.893 477.389 509.04 480.036 509.04L480.036 509.04L721.635 509.04C 724.282 509.04 726.429 506.893 726.429 504.246L726.429 504.246L726.429 499.182C 726.429 493.33502 721.688 488.59402 715.841 488.59402z" stroke="none" fill="#414142" fill-rule="nonzero" />
    <path id=""  transform="matrix(1 0 0 -1 0 914)"  d="M685.947 554.787C 663.013 559.10803 652.861 568.29504 647.781 578.197C 645.258 583.115 644.103 588.622 644.059 594.15L644.059 594.15L643.485 666.777C 643.485 690.386 624.346 709.575 600.736 709.575L600.736 709.575L599.873 709.575C 576.264 709.575 557.125 690.386 557.125 666.777L557.125 666.777L555.836 594.584C 555.737 589.063 554.594 583.557 552.139 578.611C 547.148 568.557 537.065 559.173 513.822 554.794C 488.767 550.073 485.948 529.428 486.176 519.01404C 486.249 515.648 488.995 512.963 492.362 512.97L492.362 512.97L599.814 513.203L599.814 513.203L707.369 512.969C 710.732 512.96204 713.476 515.641 713.554 519.00305C 713.797 529.41504 711.009 550.06604 685.947 554.787zM600.836 647.268C 590.28 647.268 581.724 655.825 581.724 666.38C 581.724 676.935 590.28 685.492 600.836 685.492C 611.391 685.492 619.948 676.935 619.948 666.38C 619.948 655.825 611.391 647.268 600.836 647.268z" stroke="none" fill="#414142" fill-rule="nonzero" />
    <path id=""  transform="matrix(1 0 0 -1 0 914)"  d="M1012.28 696.15C 963.769 692.422 915.044 692.422 866.533 696.15C 845.322 697.78 824.969 705.739 808.743 719.49603C 798.629 728.07104 790.201 738.643 790.201 750.064L790.201 750.064L790.201 750.58704L790.201 750.58704L1088.61 750.58704L1088.61 750.58704L1088.61 750.064C 1088.61 738.643 1080.18 728.07104 1070.07 719.49603C 1053.84 705.739 1033.49 697.78 1012.28 696.15z" stroke="none" fill="#414142" fill-rule="nonzero" />
    <path id=""  transform="matrix(1 0 0 -1 0 914)"  d="M1095.52 754.074L783.295 754.074C 779.899 754.074 777.146 756.827 777.146 760.223L777.146 760.223L777.146 760.34705C 777.146 763.74304 779.899 766.49603 783.295 766.49603L783.295 766.49603L1095.52 766.49603C 1098.91 766.49603 1101.67 763.74304 1101.67 760.34705L1101.67 760.34705L1101.67 760.223C 1101.67 756.827 1098.91 754.074 1095.52 754.074z" stroke="none" fill="#414142" fill-rule="nonzero" />
    <path id=""  transform="matrix(1 0 0 -1 0 914)"  d="M927 713.575L927 663.555C 927 657.02905 932.761 652.575 939.287 652.575L939.287 652.575L939.526 652.575C 946.052 652.575 951 657.02905 951 663.555L951 663.555L951 713.575L951 713.575L927 713.575zM939.407 658.051C 935.63 658.051 932.568 661.11304 932.568 664.89C 932.568 668.667 935.63 671.728 939.407 671.728C 943.183 671.728 946.245 668.667 946.245 664.89C 946.245 661.11304 943.183 658.051 939.407 658.051z" stroke="none" fill="#414142" fill-rule="nonzero" />
    <path id=""  transform="matrix(1 0 0 -1 0 914)"  d="M188.555 698.21C 237.066 694.482 285.792 694.482 334.303 698.21C 355.514 699.84 375.867 707.79803 392.093 721.556C 402.206 730.131 410.634 740.703 410.634 752.124L410.634 752.124L410.634 752.646L410.634 752.646L112.224 752.646L112.224 752.646L112.224 752.124C 112.224 740.703 120.651 730.131 130.765 721.556C 146.991 707.79803 167.344 699.84 188.555 698.21z" stroke="none" fill="#414142" fill-rule="nonzero" />
    <path id=""  transform="matrix(1 0 0 -1 0 914)"  d="M105.317 756.13403L417.541 756.13403C 420.937 756.13403 423.69 758.887 423.69 762.283L423.69 762.283L423.69 762.407C 423.69 765.803 420.937 768.556 417.541 768.556L417.541 768.556L105.317 768.556C 101.921 768.556 99.1681 765.803 99.1681 762.407L99.1681 762.407L99.1681 762.283C 99.1681 758.887 101.921 756.13403 105.317 756.13403z" stroke="none" fill="#414142" fill-rule="nonzero" />
    <path id=""  transform="matrix(1 0 0 -1 0 914)"  d="M249 716.575L249 665.615C 249 659.089 254.783 655.575 261.309 655.575L261.309 655.575L261.548 655.575C 268.075 655.575 273 659.089 273 665.615L273 665.615L273 716.575L273 716.575L249 716.575zM254.59 666.95C 254.59 670.726 257.652 673.788 261.429 673.788C 265.206 673.788 268.267 670.726 268.267 666.95C 268.267 663.17303 265.206 660.111 261.429 660.111C 257.652 660.111 254.59 663.17303 254.59 666.95z" stroke="none" fill="#414142" fill-rule="nonzero" />
    <path id=""  transform="matrix(1 0 0 -1 0 914)"  d="M939.018 676.37103L652.208 682.249C 653.682 677.346 654.484 672.154 654.484 666.777L654.484 666.777L654.629 648.502L654.629 648.502L939.021 655.03C 944.762 655.161 949 659.853 949 665.59503L949 665.59503L949 665.804C 949 671.557 944.769 676.253 939.018 676.37103zM939.407 658.051C 935.63 658.051 932.568 661.11304 932.568 664.89C 932.568 668.667 935.63 671.728 939.407 671.728C 943.183 671.728 946.245 668.667 946.245 664.89C 946.245 661.11304 943.183 658.051 939.407 658.051z" stroke="none" fill="#414142" fill-rule="nonzero" />
    <path id=""  transform="matrix(1 0 0 -1 0 914)"  d="M549.076 684.324L261.411 678.43C 255.659 678.313 251 673.617 251 667.864L251 667.864L251 667.655C 251 661.913 255.619 657.221 261.36 657.09L261.36 657.09L545.833 650.57104L545.833 650.57104L546.125 666.88C 546.136 672.986 547.184 678.851 549.076 684.324zM261.429 660.111C 257.652 660.111 254.59 663.17303 254.59 666.95C 254.59 670.726 257.652 673.788 261.429 673.788C 265.206 673.788 268.267 670.726 268.267 666.95C 268.267 663.17303 265.206 660.111 261.429 660.111z" stroke="none" fill="#414142" fill-rule="nonzero" />
    <path id=""  transform="matrix(1 0 0 -1 0 914)"  d="M719.259 106.612L489.248 106.612C 483.401 106.612 478.66 111.35199 478.66 117.199036L478.66 117.199036L478.66 122.263C 478.66 124.91101 480.806 127.05701 483.454 127.05701L483.454 127.05701L725.052 127.05701C 727.7 127.05701 729.846 124.91101 729.846 122.263L729.846 122.263L729.846 117.199036C 729.846 111.35199 725.106 106.612 719.259 106.612z" stroke="none" fill="#414142" fill-rule="nonzero" />
    <path id=""  transform="matrix(1 0 0 -1 0 914)"  d="M689.365 172.805C 666.431 177.12604 656.279 186.31299 651.199 196.21399C 648.675 201.13202 647.521 206.63904 647.477 212.16699L647.477 212.16699L646.903 284.794C 646.903 308.403 627.764 327.59204 604.154 327.59204L604.154 327.59204L603.291 327.59204C 579.681 327.59204 560.542 308.403 560.542 284.794L560.542 284.794L559.253 212.60101C 559.155 207.08002 558.012 201.57404 555.557 196.62799C 550.566 186.57404 540.483 177.19 517.24 172.81104C 492.184 168.09003 489.366 147.445 489.593 137.03198C 489.667 133.66602 492.413 130.98004 495.779 130.98804L495.779 130.98804L603.232 131.22003L603.232 131.22003L710.786 130.98602C 714.15 130.979 716.894 133.65802 716.972 137.021C 717.215 147.432 714.427 168.08301 689.365 172.805zM604.253 265.286C 593.698 265.286 585.141 273.84204 585.141 284.398C 585.141 294.953 593.698 303.51 604.253 303.51C 614.808 303.51 623.365 294.953 623.365 284.398C 623.365 273.84204 614.808 265.286 604.253 265.286z" stroke="none" fill="#414142" fill-rule="nonzero" />
    <path id=""  transform="matrix(1 0 0 -1 0 914)"  d="M1005.51 395.29602C 956.995 391.56403 908.27 391.55902 859.758 395.28198C 838.547 396.91003 818.193 404.866 801.966 418.622C 791.851 427.196 783.422 437.768 783.421 449.18903L783.421 449.18903L783.421 449.711L783.421 449.711L1081.83 449.74002L1081.83 449.74002L1081.83 449.21802C 1081.83 437.797 1073.41 427.224 1063.29 418.648C 1047.07 404.889 1026.72 396.92804 1005.51 395.29602z" stroke="none" fill="#414142" fill-rule="nonzero" />
    <path id=""  transform="matrix(1 0 0 -1 0 914)"  d="M1088.74 453.22803L776.514 453.198C 773.118 453.19702 770.365 455.95 770.365 459.346L770.365 459.346L770.365 459.47C 770.364 462.866 773.117 465.61902 776.513 465.62003L776.513 465.62003L1088.74 465.65002C 1092.13 465.651 1094.89 462.898 1094.89 459.502L1094.89 459.502L1094.89 459.37802C 1094.89 455.98203 1092.13 453.229 1088.74 453.22803z" stroke="none" fill="#414142" fill-rule="nonzero" />
    <path id=""  transform="matrix(1 0 0 -1 0 914)"  d="M920.224 412.713L920.229 362.693C 920.229 356.167 925.99 351.713 932.517 351.714L932.517 351.714L932.756 351.714C 939.282 351.71503 944.229 356.169 944.229 362.695L944.229 362.695L944.224 412.71503L944.224 412.71503L920.224 412.713zM932.636 357.19C 928.859 357.19 925.797 360.25104 925.797 364.028C 925.796 367.805 928.858 370.867 932.634 370.867C 936.411 370.86804 939.473 367.80603 939.474 364.029C 939.474 360.253 936.413 357.19104 932.636 357.19z" stroke="none" fill="#414142" fill-rule="nonzero" />
    <path id=""  transform="matrix(1 0 0 -1 0 914)"  d="M340.506 243.29602C 291.995 239.56403 243.27 239.55902 194.758 243.28198C 173.547 244.91003 153.193 252.86603 136.966 266.622C 126.851 275.19598 118.422 285.768 118.421 297.18903L118.421 297.18903L118.421 297.711L118.421 297.711L416.832 297.74L416.832 297.74L416.832 297.21802C 416.833 285.797 408.406 275.224 398.294 266.648C 382.069 252.88904 361.717 244.92804 340.506 243.29602z" stroke="none" fill="#414142" fill-rule="nonzero" />
    <path id=""  transform="matrix(1 0 0 -1 0 914)"  d="M423.738 301.22803L111.514 301.198C 108.118 301.19702 105.365 303.95 105.365 307.346L105.365 307.346L105.365 307.47003C 105.364 310.86603 108.117 313.61902 111.513 313.62L111.513 313.62L423.737 313.65002C 427.133 313.651 429.886 310.898 429.887 307.502L429.887 307.502L429.887 307.378C 429.887 303.982 427.134 301.229 423.738 301.22803z" stroke="none" fill="#414142" fill-rule="nonzero" />
    <path id=""  transform="matrix(1 0 0 -1 0 914)"  d="M255.224 260.713L255.229 210.693C 255.229 204.16699 260.99 199.71301 267.517 199.71399L267.517 199.71399L267.756 199.71399C 274.282 199.71503 279.229 204.169 279.229 210.695L279.229 210.695L279.224 260.71503L279.224 260.71503L255.224 260.713zM267.636 205.19C 263.859 205.19 260.797 208.25104 260.797 212.02802C 260.796 215.805 263.858 218.867 267.634 218.867C 271.411 218.86804 274.473 215.80603 274.474 212.02899C 274.474 208.25299 271.413 205.19104 267.636 205.19z" stroke="none" fill="#414142" fill-rule="nonzero" />
    <path id=""  transform="matrix(1 0 0 -1 0 914)"  d="M941.962 367.06604L941.914 367.26898C 940.607 372.87103 935.419 376.482 929.792 375.29004L929.792 375.29004L648.174 315.607C 654.295 306.872 657.902 296.25 657.902 284.794L657.902 284.794L657.915 283.174L657.915 283.174L934.646 354.508C 940.206 355.94202 943.267 361.474 941.962 367.06604zM934.335 357.53802C 930.657 356.68 926.979 358.96503 926.12 362.643C 925.262 366.32098 927.547 369.99902 931.225 370.857C 934.903 371.716 938.581 369.43 939.439 365.752C 940.298 362.07404 938.013 358.39703 934.335 357.53802z" stroke="none" fill="#414142" fill-rule="nonzero" />
    <path id=""  transform="matrix(1 0 0 -1 0 914)"  d="M549.631 287.83398L265.63 222.89899C 260.022 221.617 256.412 216.073 257.579 210.44L257.579 210.44L257.622 210.23602C 258.787 204.61304 264.261 200.956 269.91 201.992L269.91 201.992L548.976 253.172L548.976 253.172L549.542 284.89703C 549.544 285.883 549.577 286.86102 549.631 287.83398zM269.365 204.96399C 265.666 204.198 262.047 206.57501 261.281 210.27301C 260.514 213.97101 262.891 217.591 266.59 218.357C 270.288 219.12299 273.907 216.74603 274.673 213.04803C 275.44 209.35004 273.063 205.73004 269.365 204.96399z" stroke="none" fill="#414142" fill-rule="nonzero" />
				</g>
			</g>
		</g>
	</g>
</g>
</svg>