<?xml version="1.0" encoding="UTF-8" standalone="no"?>
<!-- Created with Inkscape (http://www.inkscape.org/) -->

<svg
   version="1.1"
   id="svg2"
   xml:space="preserve"
   width="155.98447"
   height="82.165627"
   viewBox="0 0 155.98445 82.165628"
   sodipodi:docname="logo-uspceu.svg"
   inkscape:version="1.1 (c4e8f9ed74, 2021-05-24)"
   xmlns:inkscape="http://www.inkscape.org/namespaces/inkscape"
   xmlns:sodipodi="http://sodipodi.sourceforge.net/DTD/sodipodi-0.dtd"
   xmlns="http://www.w3.org/2000/svg"
   xmlns:svg="http://www.w3.org/2000/svg"
   xmlns:rdf="http://www.w3.org/1999/02/22-rdf-syntax-ns#"
   xmlns:cc="http://creativecommons.org/ns#"
   xmlns:dc="http://purl.org/dc/elements/1.1/"><metadata
     id="metadata8"><rdf:RDF><cc:Work
         rdf:about=""><dc:format>image/svg+xml</dc:format><dc:type
           rdf:resource="http://purl.org/dc/dcmitype/StillImage" /></cc:Work></rdf:RDF></metadata><defs
     id="defs6" /><sodipodi:namedview
     pagecolor="#ffffff"
     bordercolor="#666666"
     borderopacity="1"
     objecttolerance="10"
     gridtolerance="10"
     guidetolerance="10"
     inkscape:pageopacity="0"
     inkscape:pageshadow="2"
     inkscape:window-width="1920"
     inkscape:window-height="984"
     id="namedview4"
     showgrid="false"
     inkscape:zoom="7.2196346"
     inkscape:cx="67.316426"
     inkscape:cy="54.227121"
     inkscape:window-x="0"
     inkscape:window-y="27"
     inkscape:window-maximized="1"
     inkscape:current-layer="g12"
     fit-margin-top="3"
     fit-margin-left="3"
     fit-margin-right="3"
     fit-margin-bottom="3"
     inkscape:pagecheckerboard="1" /><g
     id="g10"
     inkscape:groupmode="layer"
     inkscape:label="ink_ext_XXXXXX"
     transform="matrix(1.3333333,0,0,-1.3333333,3,59.693198)"><g
       id="g12"
       transform="scale(0.1)"><g
         id="g60"
         transform="matrix(1.3434702,0,0,1.3434702,0,-146.04319)"><path
           d="m 394.883,155.02 -0.594,-2.52 -4.785,-0.332 c -2.18,-0.176 -2.961,-1.406 -3.652,-4.355 l -6.887,-29.61 c -3.828,-16.348 2.265,-21.66 11.933,-21.66 12.102,0 16.36,9.316 19.055,20.879 l 7.051,30.391 c 0.691,2.851 0.086,4.101 -1.906,4.257 l -5.145,0.43 0.613,2.52 h 23.848 l -0.613,-2.52 -4.785,-0.43 c -2.18,-0.156 -2.961,-1.308 -3.664,-4.257 l -7.391,-31.504 c -4.785,-20.2934 -15.676,-22.8129 -27.5,-22.8129 -14.973,0 -24.367,6.2695 -20.273,23.5939 l 7.304,30.723 c 0.703,2.851 0.086,4.101 -1.914,4.257 l -5.129,0.43 0.606,2.52 h 23.828"
           style="fill:#ffffff;fill-opacity:1;fill-rule:nonzero;stroke:none"
           id="path14"
           inkscape:connector-curvature="0" /><path
           d="m 428.496,93.7695 9.152,35.5855 c 0.782,2.774 0.782,4.004 -1.32,4.18 l -5.398,0.449 0.527,2.071 15.926,2.441 0.441,-0.449 -5.664,-18.965 h 0.262 c 5.234,10.195 14.277,19.414 22.637,19.414 7.129,0 8.175,-5.742 6.171,-12.637 l -6.785,-22.793 c -0.781,-2.773 -0.871,-4.7847 0.86,-4.7847 2.441,0 6.289,6.1917 7.84,9.2387 l 2.089,-1.231 c -2.957,-6.6015 -7.832,-12.5195 -14.355,-12.5195 -4.707,0 -5.84,3.6524 -4.441,8.5155 l 7.48,25.508 c 0.965,3.379 0.176,6.191 -2.863,6.191 -7.051,0 -15.418,-12.714 -18.633,-20.214 -2.254,-5.391 -3.75,-10.098 -6.258,-18.9653 l -7.668,-1.0352"
           style="fill:#ffffff;fill-opacity:1;fill-rule:nonzero;stroke:none"
           id="path16"
           inkscape:connector-curvature="0" /><path
           d="m 505.352,152.246 c 0,-3.476 -2.188,-5.84 -5.575,-5.84 -2.609,0 -4.777,1.66 -4.777,4.883 0,2.793 1.906,5.723 5.645,5.723 2.433,0 4.707,-1.367 4.707,-4.766 m -4.266,-13.75 0.437,-0.449 -9.492,-34.981 c -0.789,-2.793 -0.879,-4.7847 0.871,-4.7847 2.43,0 6.258,6.1917 7.832,9.2387 l 2.09,-1.231 C 499.863,99.668 495,93.75 488.73,93.75 c -4.707,0 -5.828,3.5938 -4.531,8.555 l 7.324,27.207 c 0.774,3.066 0.508,3.847 -1.835,4.023 l -4.961,0.449 0.507,2.071 15.852,2.441"
           style="fill:#ffffff;fill-opacity:1;fill-rule:nonzero;stroke:none"
           id="path18"
           inkscape:connector-curvature="0" /><path
           d="m 527.629,138.496 0.43,-0.449 -7.571,-33.672 c -0.957,-4.18 0.617,-6.0937 2.785,-6.0937 7.129,-0.254 18.368,15.5667 19.071,27.5197 0,4.512 -0.176,7.832 -1.055,10.859 1.828,1.133 4.27,1.836 6.348,1.836 0.703,0 2.695,-3.379 2.695,-6.797 -0.086,-5.39 -4.246,-14.863 -10.156,-22.871 -6.024,-8.105 -13.582,-15.078 -21.063,-15.078 -4.972,0 -7.765,3.4961 -6.015,11.426 l 5.312,24.179 c 0.594,2.852 0.703,4.004 -1.328,4.18 l -5.383,0.449 0.528,2.071 15.402,2.441"
           style="fill:#ffffff;fill-opacity:1;fill-rule:nonzero;stroke:none"
           id="path20"
           inkscape:connector-curvature="0" /><path
           d="m 581.066,130.313 c 0,3.046 -1.992,5.136 -5.039,5.136 -6.953,0 -13.476,-10.449 -14.961,-20.957 14.696,3.125 20,9.727 20,15.821 m 4.012,-24.122 c -5.918,-9.648 -13.574,-12.4215 -19.922,-12.4215 -5.058,0 -12.988,2.0703 -12.988,14.2575 0,7.325 2.637,14.903 7.238,20.547 4.785,5.918 11.219,9.922 19.051,9.922 7.148,0 10.801,-4.101 10.801,-8.691 0,-2.461 -0.606,-5.313 -3.653,-8.36 -3.738,-3.476 -10.085,-6.953 -24.714,-9.941 -0.09,-0.606 -0.09,-0.957 -0.09,-1.367 0,-6.895 1.836,-12.1097 7.922,-12.1097 6.531,0 11.218,5.8207 14.363,9.9217 l 1.992,-1.758"
           style="fill:#ffffff;fill-opacity:1;fill-rule:nonzero;stroke:none"
           id="path22"
           inkscape:connector-curvature="0" /><path
           d="m 593.703,93.7695 8.008,35.5855 c 0.605,2.774 0.769,4.004 -1.309,4.18 l -5.402,0.449 0.52,2.071 14.98,2.441 0.418,-0.449 -3.895,-14.434 h 0.157 c 4.707,9.395 10.722,14.883 15.593,14.883 2.786,0 4.004,-1.484 3.899,-3.828 0,-2.539 -1.906,-5.391 -4.074,-5.391 -2.793,0 -3.387,2.168 -6.102,2.168 -3.301,0 -7.656,-7.48 -10.781,-18.906 -1.399,-5.019 -3.059,-12.09 -4.531,-17.7343 l -7.481,-1.0352"
           style="fill:#ffffff;fill-opacity:1;fill-rule:nonzero;stroke:none"
           id="path24"
           inkscape:connector-curvature="0" /><path
           d="m 657.227,131.699 c 0,-2.695 -2.43,-4.004 -4.168,-4.004 -1.301,0 -2.004,0.703 -2.434,1.739 -1.836,4.101 -4.09,6.015 -6.973,6.015 -3.222,0 -5.39,-2.871 -5.39,-5.644 0,-2.461 0.949,-5.332 6.172,-9.59 5.839,-4.785 8.019,-8.535 8.019,-13.32 0,-7.1294 -5.656,-13.1255 -15.058,-13.1255 -8.274,0 -13.047,4.5118 -13.047,8.2615 0,2.344 1.902,4.688 4.511,4.688 1.485,0 2.274,-0.938 2.782,-2.598 1.398,-4.6093 4.629,-7.3241 7.832,-7.3241 3.664,0 6.269,2.4414 6.269,6.5431 0,3.379 -2.265,7.207 -5.996,10.176 -4.539,3.652 -7.676,7.656 -7.676,12.168 0,7.07 5.235,12.812 14.114,12.812 7.742,0 11.043,-4.101 11.043,-6.797"
           style="fill:#ffffff;fill-opacity:1;fill-rule:nonzero;stroke:none"
           id="path26"
           inkscape:connector-curvature="0" /><path
           d="m 685.078,152.246 c 0,-3.476 -2.168,-5.84 -5.574,-5.84 -2.609,0 -4.777,1.66 -4.777,4.883 0,2.793 1.914,5.723 5.656,5.723 2.441,0 4.695,-1.367 4.695,-4.766 m -4.265,-13.75 0.437,-0.449 -9.492,-34.981 c -0.77,-2.793 -0.86,-4.7847 0.879,-4.7847 2.441,0 6.261,6.1917 7.832,9.2387 l 2.09,-1.231 c -2.95,-6.621 -7.832,-12.539 -14.102,-12.539 -4.687,0 -5.84,3.5938 -4.531,8.555 l 7.304,27.207 c 0.793,3.066 0.528,3.847 -1.816,4.023 l -4.949,0.449 0.508,2.071 15.84,2.441"
           style="fill:#ffffff;fill-opacity:1;fill-rule:nonzero;stroke:none"
           id="path28"
           inkscape:connector-curvature="0" /><path
           d="m 700.305,98.2813 c 4.617,0 10.351,6.5237 14.55,13.3207 4.422,7.226 7.305,15.41 8.614,22.089 -1.047,0.977 -3.301,1.758 -6.016,1.758 -13.926,0 -21.496,-21.504 -21.496,-30.898 0,-3.906 1.574,-6.2697 4.348,-6.2697 m 36.648,61.0937 0.43,-0.43 -13.75,-55.879 c -0.692,-2.793 -0.86,-4.7847 0.879,-4.7847 2.433,0 6.261,6.1917 7.832,9.2387 l 2.09,-1.231 c -2.957,-6.621 -7.832,-12.539 -14.2,-12.539 -4.433,-0.0781 -5.73,3.4961 -4.004,9.668 l 2.883,10.371 h -0.168 c -5.144,-9.316 -12.89,-20.039 -22.898,-20.039 -7.051,0 -8.711,5.8398 -8.711,11.484 0,10.547 9.316,33.262 29.609,33.262 2.938,0 5.653,-0.625 7.293,-1.484 l 0.176,0.176 3.301,14.003 c 0.715,2.793 0.527,3.418 -1.57,3.594 l -5.207,0.508 0.519,2.012 15.496,2.07"
           style="fill:#ffffff;fill-opacity:1;fill-rule:nonzero;stroke:none"
           id="path30"
           inkscape:connector-curvature="0" /><path
           d="m 768.711,135.449 c -13.652,0 -22.188,-21.504 -22.188,-31.074 0,-3.379 0.969,-6.0937 3.829,-6.0937 4.171,0 9.492,5.8397 14.355,13.2227 4.621,6.973 7.746,15.586 9.316,22.031 -1.289,1.211 -3.21,1.914 -5.312,1.914 m 13.937,2.364 -9.23,-34.747 c -0.77,-2.773 -0.859,-4.7847 0.871,-4.7847 2.43,0 6.258,6.1917 7.832,9.2387 l 2.078,-1.231 c -2.949,-6.6015 -7.812,-12.5195 -14.433,-12.5195 -4.707,0 -5.653,3.5743 -3.828,9.7465 l 2.949,9.922 h -0.176 c -5.039,-8.907 -13.125,-19.6685 -22.441,-19.6685 -5.918,0 -8.36,5.1172 -8.36,10.3515 0,11.484 9.934,34.375 30.645,34.375 2.343,0 4.863,-0.801 6.347,-1.836 l 0.442,1.153 h 7.304"
           style="fill:#ffffff;fill-opacity:1;fill-rule:nonzero;stroke:none"
           id="path32"
           inkscape:connector-curvature="0" /><path
           d="m 800.234,98.2813 c 4.602,0 10.352,6.5237 14.524,13.3207 4.441,7.226 7.312,15.41 8.621,22.089 -1.043,0.977 -3.309,1.758 -6.016,1.758 -13.914,0 -21.484,-21.504 -21.484,-30.898 0,-3.906 1.555,-6.2697 4.355,-6.2697 m 36.621,61.0937 0.442,-0.43 -13.742,-55.879 c -0.703,-2.793 -0.879,-4.7847 0.871,-4.7847 2.429,0 6.258,6.1917 7.832,9.2387 l 2.097,-1.231 c -2.968,-6.621 -7.851,-12.539 -14.199,-12.539 -4.433,-0.0781 -5.742,3.4961 -4.011,9.668 l 2.878,10.371 h -0.175 c -5.137,-9.316 -12.879,-20.039 -22.879,-20.039 -7.063,0 -8.711,5.8398 -8.711,11.484 0,10.547 9.305,33.262 29.59,33.262 2.968,0 5.652,-0.625 7.312,-1.484 l 0.168,0.176 3.32,14.003 c 0.684,2.793 0.516,3.418 -1.574,3.594 l -5.234,0.508 0.527,2.012 15.488,2.07"
           style="fill:#ffffff;fill-opacity:1;fill-rule:nonzero;stroke:none"
           id="path34"
           inkscape:connector-curvature="0" /><path
           d="m 399.348,46.2305 c 1.023,8.9453 -2.188,13.5547 -10.547,13.5547 -7.578,0 -12.09,-4.8633 -12.09,-11.0352 0,-6.6406 6.18,-9.5703 11.219,-12.1875 8.8,-4.5312 13.058,-9.4922 13.058,-17.3242 C 400.988,9.92188 395.859,0.175781 378.965,0 372.617,0 364.18,2.61719 360.781,7.12891 l 2.258,13.32029 h 2.527 c -0.527,-11.58201 6.438,-17.38279 14.446,-17.38279 8.699,0 13.144,6.40625 13.144,12.59769 0,6.9531 -4.191,10.6054 -11.152,14.1015 -7.043,3.3985 -12.609,7.6563 -12.609,15.8399 0,7.3047 4.796,17.2265 20.019,17.2265 5.391,0 11.836,-1.4648 15.578,-4.4336 l -3.137,-12.1679 h -2.507"
           style="fill:#ffffff;fill-opacity:1;fill-rule:nonzero;stroke:none"
           id="path36"
           inkscape:connector-curvature="0" /><path
           d="m 437.715,41.9336 c -13.672,0 -22.195,-21.4844 -22.195,-31.0547 0,-3.39843 0.957,-6.09374 3.835,-6.09374 4.172,0 9.485,5.82034 14.356,13.22264 4.621,6.9727 7.746,15.586 9.309,22.0313 -1.301,1.2109 -3.204,1.8945 -5.305,1.8945 m 13.937,2.3633 -9.23,-34.72659 c -0.789,-2.79297 -0.879,-4.78515 0.871,-4.78515 2.43,0 6.258,6.19144 7.832,9.21874 l 2.078,-1.2109 C 450.254,6.17188 445.371,0.253906 438.762,0.253906 c -4.699,0 -5.657,3.574224 -3.84,9.746094 l 2.969,9.9219 h -0.176 C 432.668,11.0547 424.57,0.253906 415.254,0.253906 c -5.906,0 -8.359,5.136724 -8.359,10.351594 0,11.5039 9.933,34.3945 30.644,34.3945 2.344,0 4.883,-0.7812 6.367,-1.8164 l 0.43,1.1133 h 7.316"
           style="fill:#ffffff;fill-opacity:1;fill-rule:nonzero;stroke:none"
           id="path38"
           inkscape:connector-curvature="0" /><path
           d="m 458.516,0.273438 9.132,35.585962 c 0.782,2.7734 0.782,4.0039 -1.3,4.1797 l -5.399,0.4297 0.528,2.0898 15.937,2.4414 0.418,-0.4297 -5.644,-18.9844 h 0.265 C 477.668,35.7617 486.719,45 495.07,45 c 7.149,0 8.184,-5.7422 6.18,-12.6172 L 494.473,9.58984 c -0.801,-2.8125 -0.887,-4.80468 0.851,-4.80468 2.442,0 6.289,6.17184 7.84,9.21874 l 2.082,-1.2109 C 502.297,6.17188 497.414,0.273438 490.898,0.273438 c -4.707,0 -5.839,3.652342 -4.441,8.515622 l 7.481,25.48824 c 0.964,3.418 0.175,6.1915 -2.864,6.1915 -7.058,0 -15.418,-12.7149 -18.621,-20.1954 -2.277,-5.3906 -3.762,-10.0781 -6.281,-18.96481 l -7.656,-1.035152"
           style="fill:#ffffff;fill-opacity:1;fill-rule:nonzero;stroke:none"
           id="path40"
           inkscape:connector-curvature="0" /><path
           d="m 549.551,32.3828 c -0.613,-2.793 -0.77,-3.6523 5.226,-3.6523 11.758,0 18.719,5.9179 18.719,18.3593 0,7.4024 -4.453,11.4063 -13.074,11.4063 -4.426,0 -5.051,-0.8008 -5.559,-3.0469 z m -22.715,-31.07421 0.527,2.53907 4.778,0.50781 c 2.089,0.17578 2.968,1.23047 3.66,4.17969 l 10.441,45.76174 c 0.703,2.8906 0.086,4.1015 -1.906,4.2773 l -5.137,0.4297 0.606,2.5391 h 20.351 c 5.754,0 11.328,-0.8008 15.422,-3.1446 4.266,-2.4414 7.051,-6.9726 7.051,-12.8711 0,-6.5234 -3.223,-12.3632 -8.801,-15.7617 -4.961,-3.0468 -11.922,-4.082 -19.316,-4.082 h -6.446 L 544.152,8.53516 c -0.597,-2.77344 -0.175,-4.00391 1.914,-4.17969 l 6.016,-0.50781 -0.527,-2.53907 h -24.719"
           style="fill:#ffffff;fill-opacity:1;fill-rule:nonzero;stroke:none"
           id="path42"
           inkscape:connector-curvature="0" /><path
           d="m 611.27,41.9336 c -13.661,0 -22.196,-21.4844 -22.196,-31.0547 0,-3.39843 0.957,-6.09374 3.828,-6.09374 4.18,0 9.493,5.82034 14.364,13.22264 4.601,6.9727 7.746,15.586 9.308,22.0313 -1.308,1.2109 -3.222,1.8945 -5.304,1.8945 m 13.918,2.3633 -9.211,-34.72659 c -0.789,-2.79297 -0.879,-4.78515 0.859,-4.78515 2.441,0 6.269,6.19144 7.832,9.21874 L 626.75,12.793 C 623.809,6.17188 618.918,0.253906 612.324,0.253906 c -4.707,0 -5.664,3.574224 -3.847,9.746094 l 2.961,9.9219 H 611.27 C 606.211,11.0547 598.125,0.253906 588.809,0.253906 c -5.926,0 -8.36,5.136724 -8.36,10.351594 0,11.5039 9.934,34.3945 30.637,34.3945 2.352,0 4.891,-0.7812 6.355,-1.8164 l 0.442,1.1133 h 7.305"
           style="fill:#ffffff;fill-opacity:1;fill-rule:nonzero;stroke:none"
           id="path44"
           inkscape:connector-curvature="0" /><path
           d="m 661.828,40.4688 c -5.383,0 -11.914,-7.4805 -15.832,-14.4532 -2.781,-5.039 -4.617,-11.0547 -4.617,-15.2148 0,-4.35549 2.703,-7.50002 7.129,-7.50002 12.801,0 18.027,23.69142 18.027,29.94142 0,4.9805 -1.484,7.2266 -4.707,7.2266 M 643.633,27.0703 h 0.176 C 650.508,39.0039 659.121,45 665.742,45 c 6.457,0 9.328,-4.5312 9.328,-10.957 0,-3.9453 -1.406,-11.6797 -5.754,-19.336 -4.265,-7.65622 -11.66,-14.433562 -21.836,-14.433562 -4.968,0 -9.402,2.421872 -10.976,6.074222 l -2.695,-5.03907 h -3.133 l 12.801,55.60551 c 0.773,3.3789 0.421,4.0039 -1.747,4.2773 l -4.96,0.5859 0.515,2.0313 15.578,2.0898 0.438,-0.4687 -9.668,-38.3594"
           style="fill:#ffffff;fill-opacity:1;fill-rule:nonzero;stroke:none"
           id="path46"
           inkscape:connector-curvature="0" /><path
           d="m 703.613,65.8984 0.442,-0.4492 -14.024,-55.97654 c -0.703,-2.8711 -0.703,-4.6875 0.867,-4.6875 2.102,0 6.008,5.31254 8.008,9.21874 l 2.082,-1.2109 C 698.223,6.26953 692.902,0.273438 686.816,0.273438 c -4.707,0 -5.75,3.554692 -4.531,8.515622 l 11.926,48.12504 c 0.867,3.3984 0.437,4.0039 -1.75,4.2773 l -4.961,0.6055 0.539,1.9922 15.574,2.1093"
           style="fill:#ffffff;fill-opacity:1;fill-rule:nonzero;stroke:none"
           id="path48"
           inkscape:connector-curvature="0" /><path
           d="m 714.57,12.5391 c 0,-6.19144 2.785,-9.23832 7.832,-9.23832 11.926,0 16.457,23.32032 16.457,29.51172 0,5.4102 -1.906,9.1211 -7.226,9.1211 -11.496,0 -17.063,-20 -17.063,-29.3945 m 32.727,17.2265 c 0,-4.6875 -1.484,-12.0898 -5.469,-18.3593 -4.094,-6.44536 -10.195,-11.132862 -19.687,-11.132862 -10.957,0 -16.008,6.425782 -16.008,15.742162 0,7.5 4.961,28.9844 25.586,28.9844 7.051,0 15.578,-3.2227 15.578,-15.2344"
           style="fill:#ffffff;fill-opacity:1;fill-rule:nonzero;stroke:none"
           id="path50"
           inkscape:connector-curvature="0" /><path
           d="m 278.965,285.723 c 0,-77.028 -62.469,-139.473 -139.473,-139.473 -77.0389,0 -139.4802812,62.445 -139.4802812,139.473 0,77.019 62.4413812,139.476 139.4802812,139.476 77.004,0 139.473,-62.457 139.473,-139.476"
           style="fill:#a2c21e;fill-opacity:1;fill-rule:nonzero;stroke:none"
           id="path52"
           inkscape:connector-curvature="0" /><path
           d="m 0,285.723 c 0,-10.2 1.10547,-20.16 3.21484,-29.75 H 275.762 c 2.082,9.59 3.203,19.55 3.203,29.75 0,10.222 -1.121,20.175 -3.203,29.769 H 3.21484 C 1.10547,305.898 0,295.945 0,285.723"
           style="fill:#eb2629;fill-opacity:1;fill-rule:nonzero;stroke:none"
           id="path54"
           inkscape:connector-curvature="0" /><path
           d="m 109.719,149.453 c 9.597,-2.109 19.57,-3.203 29.773,-3.203 10.196,0 20.156,1.094 29.746,3.203 v 272.563 c -9.59,2.078 -19.55,3.183 -29.746,3.183 -10.203,0 -20.176,-1.105 -29.773,-3.183 V 149.453"
           style="fill:#36b1e8;fill-opacity:1;fill-rule:nonzero;stroke:none"
           id="path56"
           inkscape:connector-curvature="0" /><path
           d="m 109.727,255.961 h 59.511 v 59.531 h -59.511 v -59.531"
           style="fill:#94397b;fill-opacity:1;fill-rule:nonzero;stroke:none"
           id="path58"
           inkscape:connector-curvature="0" /><path
           d="m 456.516,310.188 h -5.43 c -3.438,21.328 -16.25,28.89 -34.668,28.89 -33.594,0.172 -45.332,-29.617 -45.332,-59.242 0,-21.832 7.762,-58.492 44.98,-58.492 23.633,0 32.84,13.711 37.938,32.488 h 5.402 l -2.531,-30.144 c -8.68,-4.688 -25.293,-8.672 -39.727,-8.672 -20.234,0 -37.929,4.14 -49.128,15.339 -10.852,10.84 -17.161,27.825 -17.161,48.946 0,20.41 6.133,35.941 16.438,47.496 10.82,12.094 28.711,18.59 50.926,18.59 16.425,0 30.168,-3.239 38.293,-7.024 v -28.175"
           style="fill:#ffffff;fill-opacity:1;fill-rule:nonzero;stroke:none"
           id="path60"
           inkscape:connector-curvature="0" /><path
           d="m 566.855,342.695 v -29.617 h -5.41 c -2.539,18.781 -6.699,23.297 -27.285,23.297 h -17.703 c -5.781,0 -6.68,-0.727 -6.68,-6.5 v -43.707 h 25.301 c 15.332,0 16.055,4.332 17.688,15.531 h 5.429 v -38.121 h -5.429 c -1.633,11.387 -2.356,15.723 -17.688,15.723 h -25.301 v -39.922 c 0,-8.836 0.731,-11.902 4.512,-13.535 3.816,-1.446 10.313,-1.797 18.797,-1.797 22.754,0 30.891,2.871 35.039,24.914 h 5.41 l -2.168,-31.242 h -95.73 v 5.246 c 15.918,1.082 16.277,1.433 16.277,11.551 v 91.379 c 0,10.113 -0.359,10.48 -16.277,11.566 v 5.234 h 91.218"
           style="fill:#ffffff;fill-opacity:1;fill-rule:nonzero;stroke:none"
           id="path62"
           inkscape:connector-curvature="0" /><path
           d="m 716.379,342.695 v -5.234 c -15.703,-1.086 -16.262,-1.453 -16.262,-11.566 v -62.102 c 0,-10.859 -1.785,-20.438 -4.863,-26.738 -8.309,-17.899 -27.266,-22.039 -45.145,-22.039 -17.714,0 -36.671,4.336 -44.98,22.039 -3.039,6.125 -4.688,15.703 -4.863,26.367 v 62.473 c 0,10.113 -0.364,10.48 -16.243,11.566 v 5.234 h 50.383 v -5.234 c -15.722,-1.086 -16.281,-1.453 -16.281,-11.566 v -58.508 c 0,-17.176 2.746,-28.008 8.125,-35.223 5.605,-7.207 13.555,-10.82 23.859,-10.82 10.469,0 18.418,3.613 24.024,10.82 5.418,7.215 8.125,18.047 8.125,35.223 v 58.508 c 0,10.113 -0.363,10.48 -16.25,11.566 v 5.234 h 50.371"
           style="fill:#ffffff;fill-opacity:1;fill-rule:nonzero;stroke:none"
           id="path64"
           inkscape:connector-curvature="0" /></g></g></g></svg>
